<?xml version="1.0" standalone="no"?>
<!DOCTYPE svg PUBLIC "-//W3C//DTD SVG 1.1//EN" "http://www.w3.org/Graphics/SVG/1.1/DTD/svg11.dtd" >
<!--
2013-9-30: Created.
-->
<svg>
<metadata>
Created by iconfont
</metadata>
<defs>

<font id="iconfont" horiz-adv-x="1024" >
  <font-face
    font-family="iconfont"
    font-weight="500"
    font-stretch="normal"
    units-per-em="1024"
    ascent="896"
    descent="-128"
  />
    <missing-glyph />
    
    <glyph glyph-name="x" unicode="x" horiz-adv-x="1001"
d="M281 543q-27 -1 -53 -1h-83q-18 0 -36.5 -6t-32.5 -18.5t-23 -32t-9 -45.5v-76h912v41q0 16 -0.5 30t-0.5 18q0 13 -5 29t-17 29.5t-31.5 22.5t-49.5 9h-133v-97h-438v97zM955 310v-52q0 -23 0.5 -52t0.5 -58t-10.5 -47.5t-26 -30t-33 -16t-31.5 -4.5q-14 -1 -29.5 -0.5
t-29.5 0.5h-32l-45 128h-439l-44 -128h-29h-34q-20 0 -45 1q-25 0 -41 9.5t-25.5 23t-13.5 29.5t-4 30v167h911zM163 247q-12 0 -21 -8.5t-9 -21.5t9 -21.5t21 -8.5q13 0 22 8.5t9 21.5t-9 21.5t-22 8.5zM316 123q-8 -26 -14 -48q-5 -19 -10.5 -37t-7.5 -25t-3 -15t1 -14.5
t9.5 -10.5t21.5 -4h37h67h81h80h64h36q23 0 34 12t2 38q-5 13 -9.5 30.5t-9.5 34.5q-5 19 -11 39h-368zM336 498v228q0 11 2.5 23t10 21.5t20.5 15.5t34 6h188q31 0 51.5 -14.5t20.5 -52.5v-227h-327z" />
    

    
    <glyph glyph-name="zhengque" unicode="&#58950;" d="M514.048 836.608q93.184 0 174.592-35.328t142.336-96.768 96.256-143.36 35.328-175.104-35.328-175.616-96.256-143.872-142.336-96.768-174.592-35.328-175.104 35.328-142.848 96.768-96.256 143.872-35.328 175.616 35.328 175.104 96.256 143.36 142.848 96.768 175.104 35.328zM795.648 472.064q18.432 18.432 19.456 45.568t-17.408 45.568-45.056 17.92-45.056-18.944l-288.768-288.768-99.328 98.304q-18.432 18.432-45.056 18.944t-45.056-17.92-18.944-43.52 17.92-43.52l142.336-143.36q18.432-18.432 48.128-17.92t48.128 18.944l-4.096-4.096z"  horiz-adv-x="1024" />

    
    <glyph glyph-name="yue" unicode="&#58904;" d="M921.9197 639.4189c0 21.2036-13.7422 51.3882-79.2105 74.7703C797.2721 730.4172 737.2034 739.3541 673.5689 739.3541s-123.7042-8.9369-169.1423-25.1659c-65.4663-23.3821-79.2085-53.5667-79.2085-74.7703 0-3.2658 0.3278-6.7454 1.1193-10.379-0.7115-1.9047-1.1193-3.9563-1.1193-6.1089v-98.93792009017885c0-3.2658 0.3278-6.7454 1.1193-10.38-0.7115-1.9037-1.1193-3.9563-1.1193-6.1089v-53.58367027155588c-25.8126 3.3597-53.2801 5.1145-81.4511 5.1145-63.6365 0-123.7062-8.9369-169.1423-25.1659-65.4673-23.3821-79.2095-53.5677-79.2095-74.7713 0-3.2658 0.3278-6.7454 1.1193-10.379-0.7115-1.9047-1.1193-3.9563-1.1193-6.1089v-98.93792009017885c0-3.2658 0.3278-6.7454 1.1193-10.38-0.7115-1.9037-1.1193-3.9563-1.1193-6.1089v-98.93792009017885c0-3.2658 0.3278-6.7444 1.1193-10.379-0.7115-1.9037-1.1193-3.9573-1.1193-6.1089v-98.93792009017885c0-21.1996 13.7412-51.3792 79.2085-74.7633 45.4421-16.231 105.5118-25.1709 169.1433-25.1709 63.6305 0 123.7002 8.9389 169.1423 25.1709 65.4673 23.3841 79.2095 53.5647 79.2095 74.7633V82.90618960344887c25.9894-3.4007 53.2891-5.1285 81.4511-5.1285 63.6305 0 123.6992 8.9389 169.1423 25.1719 65.4673 23.3851 79.2095 53.5647 79.2095 74.7633v98.93792009017885c0 2.1515-0.4077 4.2051-1.1183 6.1089 0.7905 3.6345 1.1183 7.1132 1.1183 10.379v98.93792009017885c0 2.1525-0.4077 4.2051-1.1183 6.1089 0.7905 3.6345 1.1183 7.1132 1.1183 10.379v98.93792009017885c0 2.1525-0.4077 4.2051-1.1183 6.1089 0.7905 3.6345 1.1183 7.1142 1.1183 10.38V622.9300534237786c0 2.1525-0.4077 4.2051-1.1183 6.1089C921.5919 632.6734 921.9197 636.1531 921.9197 639.4189zM886.942 293.1397c0-10.0672-14.6657-27.0617-55.9983-41.8256-41.7624-14.9179-97.6528-23.1323-157.3758-23.1323-28.5768 0-56.2492 1.8827-82.4695 5.5902 0.7175 3.4607 1.0194 6.7784 1.0194 9.9003v70.0824840757966c25.9984-3.3967 53.2781-5.1215 81.4511-5.1215 63.6305 0 123.6992 8.9389 169.1423 25.1709 18.6511 6.6625 33.0989 13.8756 44.2318 21.2766V293.1396513164075zM557.1401 305.6112v-61.940004676829105c0-10.0662-14.6657-27.0607-55.9973-41.8256-41.7634-14.9179-97.6528-23.1323-157.3758-23.1323-59.724 0-115.6144 8.2154-157.3778 23.1323-41.3317 14.764-55.9973 31.7575-55.9973 41.8256v61.93900535436973c11.1329-7.4 25.5807-14.6141 44.2308-21.2756 45.4421-16.232 105.5118-25.1709 169.1433-25.1709 63.6305 0 123.6992 8.9389 169.1423 25.1709C531.5594 290.9971 546.0072 298.2102 557.1401 305.6112zM130.3919 190.1835c11.1329-7.4 25.5797-14.6141 44.2308-21.2756 45.4431-16.232 105.5128-25.1709 169.1433-25.1709 63.6305 0 123.6992 8.9389 169.1423 25.1709 18.6511 6.6625 33.0989 13.8766 44.2318 21.2766v-61.940004676829105c0-10.0672-14.6657-27.0617-55.9973-41.8256-41.7624-14.9179-97.6528-23.1323-157.3758-23.1323-59.724 0-115.6144 8.2154-157.3778 23.1323-41.3317 14.763-55.9973 31.7575-55.9973 41.8256V190.18345561709157zM886.942 523.9921c0-10.0672-14.6657-27.0617-55.9983-41.8256-41.7624-14.9179-97.6528-23.1323-157.3758-23.1323-59.724 0-115.6144 8.2154-157.3768 23.1323-41.3317 14.763-55.9973 31.7575-55.9973 41.8256v61.93900535436973c11.1329-7.4 25.5807-14.6141 44.2308-21.2766 45.4421-16.232 105.5108-25.1709 169.1423-25.1709 63.6305 0 123.6992 8.9389 169.1423 25.1709 18.6511 6.6625 33.0989 13.8756 44.2318 21.2766V523.9921333335999zM516.1922 681.2505c41.7574 14.9139 97.6478 23.1273 157.3768 23.1273 59.728 0 115.6184-8.2134 157.3768-23.1273 41.3317-14.762 55.9973-31.7605 55.9973-41.8316 0-10.0672-14.6657-27.0617-55.9983-41.8246-41.7624-14.9179-97.6528-23.1323-157.3758-23.1323-59.724 0-115.6144 8.2154-157.3768 23.1323-41.3317 14.763-55.9973 31.7575-55.9973 41.8246C460.1949 649.49 474.8605 666.4885 516.1922 681.2505zM460.1949 470.5054c11.1329-7.4 25.5807-14.6141 44.2308-21.2766 45.4421-16.232 105.5108-25.1709 169.1423-25.1709 63.6305 0 123.6992 8.9389 169.1423 25.1709 18.6511 6.6625 33.0989 13.8756 44.2318 21.2766v-61.93900535436973c0-10.0672-14.6657-27.0617-55.9983-41.8246-41.7624-14.9179-97.6528-23.1323-157.3758-23.1323-28.239 0-56.3501 1.9257-82.4685 5.5972 0.7165 3.4577 1.0174 6.7724 1.0174 9.8913 0 21.2046-13.7422 51.3892-79.2095 74.7713-15.9299 5.6891-33.6636 10.4789-52.7134 14.3053V470.50539734060305zM186.3883 400.9306c41.7574 14.9139 97.6488 23.1283 157.3778 23.1283 59.728 0 115.6184-8.2134 157.3758-23.1283 41.3317-14.762 55.9973-31.7615 55.9973-41.8336 0-10.0672-14.6657-27.0607-55.9973-41.8246-41.7634-14.9179-97.6528-23.1333-157.3758-23.1333-59.724 0-115.6144 8.2154-157.3778 23.1333-41.3317 14.763-55.9973 31.7575-55.9973 41.8246C130.3919 369.1691 145.0576 386.1686 186.3883 400.9306zM501.1418-29.0069c-41.7624-14.9179-97.6528-23.1323-157.3758-23.1323-59.724 0-115.6154 8.2154-157.3778 23.1323-41.3317 14.763-55.9973 31.7575-55.9973 41.8256v61.93800603191036c11.1329-7.4 25.5807-14.6141 44.2308-21.2756 45.4421-16.232 105.5118-25.1709 169.1433-25.1709 63.6305 0 123.6992 8.9389 169.1423 25.1709 18.6511 6.6625 33.0989 13.8766 44.2318 21.2766v-61.93900535436973C557.1401 2.7515 542.4744-14.2429 501.1418-29.0069zM830.9437 135.8873c-41.7624-14.9179-97.6528-23.1333-157.3758-23.1333-28.6757 0-56.3431 1.8837-82.4695 5.5902 0.7175 3.4617 1.0194 6.7784 1.0194 9.9003v70.0904786554716c26.0694-3.4027 53.374-5.1305 81.4511-5.1305 63.6305 0 123.6992 8.9389 169.1423 25.1709 18.6511 6.6625 33.0989 13.8766 44.2318 21.2766v-61.93800603191036C886.942 167.6467 872.2774 150.6523 830.9437 135.8873z"  horiz-adv-x="1000" />

    
    <glyph glyph-name="fenyeshangyiye" unicode="&#58896;" d="M889.1914-143.2978c0-5.4016-2.8621-10.6404-7.9217-13.44-5.0616-2.7996-11.0193-2.4453-15.5955 0.426L191.0886 266.5838c-4.3295 2.7126-7.1997 7.5305-7.1997 13.014s2.8733 10.3014 7.1987 13.014L865.6732 715.5085c4.5773 2.8703 10.5339 3.2246 15.5955 0.426 5.0596-2.8006 7.9217-8.0384 7.9217-13.44V-143.29779200000007L889.1914-143.2978z"  horiz-adv-x="1024" />

    
    <glyph glyph-name="yiwen" unicode="&#59039;" d="M563.363941 323.662797c-0.662107 10.635221 5.985569 21.937638 19.948145 33.908274 13.962576 11.964496 29.591164 25.264407 46.879625 39.893592 17.288461 14.628162 33.242474 31.083949 47.872273 49.365314 14.630823 18.286482 22.606806 39.397289 23.936137 63.332421 1.330354 25.932626-1.329331 50.199309-7.977007 72.810283-6.647676 22.604834-17.620026 42.050722-32.910909 58.33971-15.297023 16.290011-35.079386 29.258371-59.347087 38.900985-24.267702 9.636474-52.694294 14.45727-85.274661 14.45727-40.563514 0-74.308452-7.148817-101.239931-21.441335-26.925339-14.293541-48.705279-31.581276-65.326516-51.864228-16.621237-20.276812-28.26081-41.222867-34.908486-62.829977-6.647676-21.60711-9.641996-39.727817-8.974772-54.358025 0.662107-17.282618 6.150328-29.92045 16.455454-37.897122 10.305126-7.976672 21.442235-12.135388 33.413373-12.466939 11.964998-0.331551 22.937348 2.989077 32.910909 9.973142 9.973561 6.984065 14.960341 17.121959 14.960341 30.416753 0 7.982812 2.493902 17.790178 7.480682 29.424146s11.805356 22.771633 20.450609 33.411971c8.643207 10.635221 19.115139 19.615757 31.416819 26.924209 12.30168 7.315616 26.098473 10.971889 41.39038 10.971889 29.921706 0 53.857842-7.480368 71.81455-22.440082 17.950567-14.959713 26.263233-33.742499 24.934925-56.348356 0-11.302417-3.325885-21.772886-9.973561-31.4155-6.652793-9.642614-15.131241-18.948561-25.43739-27.929096-10.304103-8.974395-21.276452-17.949814-32.910909-26.924209-11.639573-8.974395-22.606806-18.286482-32.917049-27.929096-10.304103-9.636474-18.949356-20.111037-25.927574-31.4155-6.984358-11.302417-10.806567-23.603581-11.474814-36.898375l0.998789-37.903262c0-9.973142 4.656239-19.444864 13.962576-28.4254 9.311454-8.975419 21.613134-13.796214 36.906064-14.458293 15.29293 0.662079 27.427804 5.64865 36.403599 14.959713 8.974772 9.30697 13.134686 19.947308 12.467463 31.911804L563.365987 323.662797zM512.496324 78.314902c17.289484 0 31.753501 5.814426 43.387957 17.453511 11.639573 11.633968 17.454243 25.761734 17.454243 42.387389 0 17.287735-5.81467 31.747051-17.454243 43.386136-11.634456 11.633968-26.098473 17.453511-43.387957 17.453511-17.283344 0-31.747361-5.819542-43.381817-17.453511-11.639573-11.639085-17.454243-26.098401-17.454243-43.386136 0-16.625656 5.81467-30.753421 17.454243-42.387389C480.748964 84.129328 495.212981 78.314902 512.496324 78.314902zM511.503676 830.312952c61.834849 0 119.851582-11.799744 174.04099-35.403325 54.194524-23.604604 101.570473-55.522548 142.127847-95.746668 40.56249-40.225143 72.476657-87.433328 95.750687-141.625578 23.27403-54.187133 34.908486-112.201431 34.908486-174.033685 0-61.838394-11.634456-119.6818-34.908486-173.543521-23.27403-53.855582-55.188196-101.063767-95.750687-141.619438-40.557374-40.560788-87.933322-72.473615-142.127847-95.746668-54.189408-23.273053-112.206141-34.907021-174.04099-34.907021-61.840989 0-119.686823 11.633968-173.550806 34.907021-53.857842 23.273053-101.068009 55.18588-141.625382 95.746668-40.56249 40.555671-72.476657 87.763856-95.750687 141.619438C77.302771 263.82292 65.668315 321.666326 65.668315 383.503696c0 61.832254 11.634456 119.846552 34.908486 174.033685 23.27403 54.19225 55.188196 101.400435 95.750687 141.625578 40.557374 40.22412 87.76754 72.142064 141.625382 95.746668C391.816852 818.513208 449.662687 830.312952 511.503676 830.312952z"  horiz-adv-x="1024" />

    
    <glyph glyph-name="ttpodicon" unicode="&#59035;" d="M339.702865 99.015499 310.98787 127.731518 483.280912 300.024559 310.98787 472.317601 339.702865 501.033619 511.99693 328.740578 684.289971 501.033619 713.00599 472.317601 540.711925 300.024559 713.00599 127.731518 684.289971 99.015499 511.99693 271.309564ZM958.705901 300.024559c0-246.710938-199.999057-446.708971-446.708971-446.708971S65.286935 53.313621 65.286935 300.024559 265.285992 746.734554 511.99693 746.734554 958.705901 546.735497 958.705901 300.024559zM511.99693 706.123624c-224.282113 0-406.099065-181.816952-406.099065-406.099065s181.816952-406.099065 406.099065-406.099065 406.099065 181.816952 406.099065 406.099065S736.279043 706.123624 511.99693 706.123624z"  horiz-adv-x="1024" />

    
    <glyph glyph-name="weibiaoti111" unicode="&#58927;" d="M589.447111 133.777778c34.211556-3.136 62.535111-8.263111 82.332444-14.542222 24.888889-7.886222 38.983111-19.278222 38.983111-33.152 0-17.543111-24.718222-31.402667-64.568889-39.608889-34.289778-7.054222-81.294222-11.441778-132.778667-11.441778s-98.503111 4.387556-132.792889 11.441778c-39.850667 8.206222-64.554667 22.072889-64.554667 39.608889 0 13.873778 14.08 25.265778 38.968889 33.152 19.804444 6.279111 48.135111 11.406222 82.346667 14.542222 6.520889 0.597333 13.041778 1.194667 14.222222-11.804444 1.173333-12.999111-5.347556-13.596444-11.875556-14.193778-32.056889-2.944-58.474667-7.708444-76.814222-13.511111-13.184-4.181333-20.650667-7.096889-20.650667-8.177778 0-3.363556 16.682667-8.469333 43.576889-14.016 32.455111-6.691556 77.575111-10.830222 127.566222-10.830222 49.984 0 95.104 4.138667 127.559111 10.830222 26.894222 5.539556 43.576889 10.652444 43.576889 14.016 0 1.080889-7.473778 4.003556-20.650667 8.177778-18.339556 5.802667-44.764444 10.567111-76.821333 13.511111-6.520889 0.597333-13.041778 1.194667-11.861333 14.193778C576.398222 134.972444 582.919111 134.375111 589.447111 133.777778M513.415111 562.158222c-91.335111 0-165.816889-74.488889-165.816889-165.816889 0-34.951111 10.915556-67.413333 29.496889-94.200889l136.32-215.196444 136.32 215.196444c18.574222 26.780444 29.489778 59.249778 29.489778 94.200889C679.232 487.669333 604.750222 562.158222 513.415111 562.158222zM513.415111 325.777778c-38.869333 0-70.556444 31.687111-70.556444 70.556444 0 38.862222 31.687111 70.549333 70.556444 70.549333 38.862222 0 70.549333-31.687111 70.549333-70.549333C583.964444 357.472 552.277333 325.777778 513.415111 325.777778z"  horiz-adv-x="1024" />

    
    <glyph glyph-name="add" unicode="&#58882;" d="M512-212c-282.752 0-512 229.248-512 512s229.248 512 512 512 512-229.248 512-512S794.752-212 512-212zM512 684C299.968 684 128 512.032 128 300s171.968-384 384-384 384 171.968 384 384S724.032 684 512 684zM704 236 576 236l0-128c0-35.392-28.608-64-64-64-35.328 0-64 28.608-64 64L448 236 320 236C284.672 236 256 264.608 256 300c0 35.328 28.672 64 64 64l128 0L448 492c0 35.328 28.672 64 64 64 35.392 0 64-28.672 64-64l0-128 128 0c35.392 0 64-28.672 64-64C768 264.608 739.392 236 704 236z"  horiz-adv-x="1024" />

    
    <glyph glyph-name="xinxi" unicode="&#59275;" d="M952.052364 591.338345 70.718645 591.338345l0.852414-0.854461 0-581.127404 880.206036 0L951.777095 591.063075 952.052364 591.338345zM510.86413 150.152157 648.306432 287.593436l251.668857-247.537769-775.788895 0 249.532193 247.567445L510.86413 150.152157zM510.890736 193.592528 144.921647 560.427334l732.803895 0L510.890736 193.592528zM352.036775 309.355065 102.270245 61.556353l0 498.15569L352.036775 309.355065zM921.078932 62.359648 670.01485 309.301853l251.064083 251.063059L921.078932 62.359648z"  horiz-adv-x="1024" />

    
    <glyph glyph-name="gengduo" unicode="&#58905;" d="M95.979982 300m-95.958492 0a93.773 93.773 0 1 0 191.916984 0 93.773 93.773 0 1 0-191.916984 0ZM512 300m-95.958492 0a93.773 93.773 0 1 0 191.916984 0 93.773 93.773 0 1 0-191.916984 0ZM927.412175 300m-95.958492 0a93.773 93.773 0 1 0 191.916984 0 93.773 93.773 0 1 0-191.916984 0Z"  horiz-adv-x="1024" />

    
    <glyph glyph-name="dianhua" unicode="&#59011;" d="M752.881664-212c-66.064384 0-151.355392 44.009472-211.273728 80.941056-80.242688 49.444864-166.68672 117.85216-243.41504 192.608256l-0.27648 0.27648-24.363008 24.367104c-74.760192 76.722176-143.161344 163.172352-192.6144 243.41504C44.015616 389.526272 0 474.81728 0 540.881664c0 70.69696 50.55488 145.73568 72.290304 174.712832C89.249792 738.208512 148.504576 812 198.85056 812c20.67456 0 42.938368-13.531136 72.198144-43.876352 25.880576-26.830848 50.714624-60.184576 66.988032-83.439616 21.858304-31.22176 42.070016-63.911936 56.92416-92.053504 24.049664-45.561856 26.832896-65.099776 26.832896-75.833344 0-21.661696-11.3152-40.450048-33.624064-55.83872-14.690304-10.131456-32.323584-17.760256-49.375232-25.141248-11.501568-4.974592-29.868032-12.914688-36.872192-18.499584 2.445312-10.350592 13.125632-35.34848 41.996288-77.73184 26.90048-39.491584 61.68576-82.290688 93.110272-114.563072 32.26624-31.420416 75.0592-66.209792 114.563072-93.110272 42.371072-28.85632 67.36896-39.542784 77.727744-41.990144 5.578752 7.00416 13.524992 25.36448 18.499584 36.866048 7.374848 17.055744 15.0016 34.691072 25.141248 49.381376 15.388672 22.308864 34.177024 33.61792 55.83872 33.61792 10.733568 0 30.271488-2.781184 75.839488-26.826752 28.135424-14.854144 60.831744-35.065856 92.049408-56.92416 23.25504-16.279552 56.60672-41.1136 83.443712-66.988032C1010.468864 29.788928 1024 7.52512 1024-13.14944c0-50.345984-73.785344-109.600768-96.39936-126.560256C898.617344-161.44512 823.578624-212 752.881664-212L752.881664-212zM340.529152 104.721152c73.607168-71.702528 156.27264-137.148416 232.804352-184.30976 74.194944-45.725696 139.640832-71.950336 179.550208-71.950336 35.551232 0 86.23104 21.712896 135.579648 58.07104 21.633024 15.94368 41.322496 33.69984 55.441408 49.993728 13.248512 15.296512 18.092032 25.274368 19.320832 29.300736-5.117952 10.99776-35.528704 45.387776-106.504192 94.349312-27.84256 19.204096-56.623104 36.85376-81.0496 49.692672-30.6688 16.123904-43.450368 18.909184-46.37696 19.365888-1.13664-0.780288-4.476928-3.571712-9.555968-12.0832-5.6832-9.531392-11.147264-22.163456-16.427008-34.373632-6.5024-15.038464-13.232128-30.588928-21.48352-43.134976-13.416448-20.40832-29.89056-30.76096-48.959488-30.773248-0.346112 0-0.704512 0.006144-1.073152 0.018432-9.27744 0.196608-37.535744 0.796672-114.24768 53.041152-42.346496 28.852224-88.336384 66.254848-123.004928 100.069376l-0.54272 0.536576c-33.808384 34.678784-71.211008 80.662528-100.059136 123.004928-52.250624 76.711936-52.854784 104.968192-53.051392 114.251776-0.415744 19.417088 9.834496 36.179968 30.451712 49.831936 12.607488 8.3456 28.284928 15.12448 43.444224 21.686272 12.214272 5.279744 24.840192 10.745856 34.373632 16.422912 8.511488 5.072896 11.311104 8.419328 12.0832 9.555968-0.456704 2.926592-3.241984 15.706112-19.36384 46.37696-12.838912 24.420352-30.490624 53.20704-49.69472 81.043456-48.961536 70.981632-83.351552 101.390336-94.349312 106.508288-4.028416-1.232896-14.006272-6.076416-29.302784-19.324928-16.295936-14.112768-34.050048-33.806336-49.987584-55.441408-36.364288-49.342464-58.07104-100.022272-58.07104-135.573504 0-39.907328 26.220544-105.34912 71.944192-179.550208 47.16544-76.531712 112.613376-159.197184 184.30976-232.804352L340.529152 104.721152 340.529152 104.721152zM340.529152 104.721152"  horiz-adv-x="1024" />

    
    <glyph glyph-name="fuwu" unicode="&#59268;" d="M868.46 210.358c-4.949 8.572-14.164 13.149-23.416 12.597L685.183 222.955c-4.799 0-9.284-1.336-13.104-3.657-4.265-2.139-7.974-5.507-10.539-9.948L581.391 70.53c-3.669-6.355-4.265-13.642-2.249-20.139 0.559-1.94 1.359-3.847 2.414-5.675l77.398-134.055c2.978-10.645 12.752-18.45 24.35-18.449l160.029-0.001c9.825-1.284 19.911 3.314 25.175 12.433l79.285 137.32c1.856 3.215 2.926 6.665 3.27 10.132 1.766 6.318 1.085 13.313-2.453 19.441L868.46 210.358zM822.316-42.412 706.827-42.412l-57.503 99.542 57.32 99.225 115.544 0 57.477-99.493L822.316-42.412zM660.106 395.032c3.412-9.912 12.81-17.032 23.868-17.032l161.379 0c0.891 0 1.771 0.046 2.637 0.136 8.327 0.365 16.296 4.849 20.77 12.606l78.828 136.665c1.723 2.986 2.767 6.179 3.18 9.397 2.122 6.564 1.565 13.967-2.151 20.412L868.928 695.37c-5.055 8.764-14.572 13.349-24.026 12.538L686.3 707.908c-4.924 0-9.519-1.411-13.403-3.849-4.366-2.129-8.166-5.54-10.775-10.065l-79.688-138.155c-2.118-3.673-3.21-7.658-3.366-11.621-0.354-4.869 0.696-9.894 3.318-14.44L660.106 395.032zM707.825 642.564l116.136 0 57.395-99.108-57.645-99.538L707.636 443.918l-57.425 99.159L707.825 642.564zM596.32 246.048l0.03 104.354c-17.28-0.128-34.792 4.201-50.796 13.441-48.278 27.874-64.649 89.865-36.583 138.478l-90.324 52.129c-8.549-15.066-21.071-28.138-37.13-37.391-48.239-27.871-110.049-11.121-138.115 37.378l-90.374-52.193c8.719-14.895 13.734-32.217 13.717-50.712-0.004-55.625-45.277-100.74-101.2-100.973l-0.028-104.355c17.197 0.081 34.606-4.263 50.525-13.454 48.126-27.785 64.542-89.467 36.845-137.991l90.332-52.153c8.537 14.886 20.974 27.745 36.861 36.929 48.157 27.823 109.841 11.185 137.969-37.146l90.374 52.194c-8.641 14.833-13.59 32.078-13.585 50.486C494.856 200.781 540.285 245.974 596.32 246.048zM438.623 235.916c-34.241-59.309-110.159-79.577-169.572-45.275-59.415 34.304-79.819 110.185-45.578 169.492 34.242 59.309 110.16 79.579 169.574 45.275C452.46 371.106 472.864 295.225 438.623 235.916z"  horiz-adv-x="1024" />

    
    <glyph glyph-name="guanlidizhi" unicode="&#58917;" d="M512 812C314.0864 812 153.6 648.2624 153.6 446.3296c0-77.4144 23.6544-149.1712 63.8464-208.256 1.8944-3.3536 3.712-6.656 5.9904-9.6768l244.1984-313.7536c12.2624-16.1536 28.3136-24.1664 44.3648-24.1664 16.0512 0 32.128 8.0128 44.3392 24.1664l244.1984 313.7536c2.2528 2.944 4.0448 6.1952 5.8624 9.4464C846.6688 297.0304 870.4 368.8128 870.4 446.3296 870.4 648.2624 709.9392 812 512 812L512 812zM747.5456 279.5712l-1.8176-2.6624-1.536-2.7648-1.2032-2.0736L512-24.7616l-230.9632 296.7552-1.4336 2.5088-1.536 2.7136-1.7408 2.56C242.9184 328.8512 225.28 386.4768 225.28 446.3296 225.28 607.6608 353.8944 738.8608 512 738.8608s286.72-131.2 286.72-292.5312C798.72 386.4768 781.0048 328.7744 747.5456 279.5712L747.5456 279.5712zM512 592.5824c-79.1808 0-143.36-65.5104-143.36-146.304C368.64 365.5104 432.8192 300 512 300c79.2064 0 143.36 65.5104 143.36 146.2784C655.36 527.072 591.2064 592.5824 512 592.5824L512 592.5824zM512 373.1392c-39.5264 0-71.68 32.7936-71.68 73.1136s32.1536 73.1392 71.68 73.1392c39.5008 0 71.68-32.8192 71.68-73.1392S551.5008 373.1392 512 373.1392L512 373.1392zM704.2048-27.0912c21.1456-12.8512 33.6128-27.9808 33.6128-44.16 0-46.6688-101.0944-84.4544-225.792-84.4544-124.7232 0-225.8176 37.7856-225.8176 84.4544 0 16.1792 12.4672 31.3088 33.6384 44.16-36.5824-19.584-58.6752-44.8-58.6752-72.2944C261.12-161.568 373.4272-212 512-212c138.5216 0 250.88 50.432 250.88 112.5888C762.88-71.8912 740.7616-46.6752 704.2048-27.0912L704.2048-27.0912zM704.2048-27.0912"  horiz-adv-x="1024" />

    
    <glyph glyph-name="chenggong2" unicode="&#59020;" d="M512 896C230.4 896 0 665.6 0 384c0-281.6 230.4-512 512-512 281.6 0 512 230.4 512 512C1024 665.6 793.6 896 512 896zM512-64c-249.6 0-448 204.8-448 448 0 249.6 204.8 448 448 448 249.6 0 448-198.4 448-448C960 134.4 761.6-64 512-64zM691.2 556.8 454.4 320 332.8 441.6c-19.2 19.2-51.2 19.2-76.8 0C243.2 416 243.2 384 262.4 364.8l153.6-153.6c19.2-19.2 51.2-19.2 70.4 0l51.2 51.2 224 224c19.2 19.2 25.6 51.2 0 70.4C742.4 576 710.4 576 691.2 556.8z"  horiz-adv-x="1024" />

    
    <glyph glyph-name="kefu" unicode="&#59014;" d="M510.099209 633.690942c-138.999774 0-251.6576-110.293989-251.6576-246.382457 0-136.073118 112.657826-246.38041 251.6576-246.38041 139.003867 0 251.661693 110.307292 251.661693 246.38041C761.760902 523.396953 649.103076 633.690942 510.099209 633.690942L510.099209 633.690942zM219.507878 292.733503 219.507878 520.199121c-3.185552 0-6.344498-0.12996-9.464559-0.378623C261.613858 631.773266 376.472815 709.742035 510.138094 709.742035c133.662209 0 248.52526-77.968769 300.091706-189.921537-3.120061 0.248663-6.274914 0.378623-9.463536 0.378623l0-227.465618c64.189951 0 116.259864 50.92688 116.259864 113.729228 0 42.654472-24.019043 79.818907-59.533908 99.285261C807.513946 646.523201 671.07346 747.636087 510.138094 747.636087c-160.933319 0-297.366641-101.104699-347.349009-241.874793-35.527145-19.463284-59.538001-56.635905-59.538001-99.29447C103.251084 343.660382 155.283134 292.733503 219.507878 292.733503L219.507878 292.733503zM761.230829 162.336664c-65.760726-60.08547-154.046468-96.875374-251.130597-96.875374-96.90198 0-185.040367 36.654828-250.761184 96.540753C141.71614 102.746474 64.495408-2.71751 64.495408-145.99061l894.267287 0C958.762695-2.453497 880.097054 103.142493 761.230829 162.336664L761.230829 162.336664zM761.230829 162.336664"  horiz-adv-x="1024" />

    
    <glyph glyph-name="jianhao" unicode="&#59031;" d="M973.154 332.782 51.222 332.782c-28.275 0-51.222 22.946-51.222 51.214 0 28.276 22.946 51.222 51.222 51.222L973.154 435.218c28.33 0 51.222-22.946 51.222-51.222C1024.375 355.728 1001.484 332.782 973.154 332.782L973.154 332.782z"  horiz-adv-x="1025" />

    
    <glyph glyph-name="tishi" unicode="&#58976;" d="M512 895.55456C229.47712 895.55456 0.44544 666.52288 0.44544 383.99744c0-282.5216 229.03168-511.552 511.55456-511.552s511.55456 229.03168 511.55456 511.552C1023.55456 666.52288 794.52288 895.55456 512 895.55456zM512-4.78336c-47.08736 0-85.25952 39.41632-85.25952 88.03584S464.91264 171.2896 512 171.2896c47.0848 0 85.25696-39.41632 85.25696-88.03712S559.08608-4.78336 512-4.78336zM578.2016 312.14464c0-48.6208-26.94528-88.03456-60.18304-88.03456l-12.03584 0c-33.23904 0-60.18304 39.41376-60.18304 88.03456L409.6896 664.28416c0 48.6208 26.944 88.032 60.18176 88.032l84.25728 0c33.23904 0 60.18304-39.41248 60.18304-88.032L578.2016 312.14464z"  horiz-adv-x="1024" />

    
    <glyph glyph-name="shouqi" unicode="&#58991;" d="M891.986849 625.582263c0-2.825348-2.290159-5.116531-5.116531-5.116531l-753.153362 0c-2.825348 0-5.116531 2.291183-5.116531 5.116531l0 55.258535c0 2.825348 2.291183 5.116531 5.116531 5.116531l753.153362 0c2.826372 0 5.116531-2.291183 5.116531-5.116531L891.986849 625.582263zM891.986849 275.611543c0-2.826372-2.290159-5.116531-5.116531-5.116531l-753.153362 0c-2.825348 0-5.116531 2.290159-5.116531 5.116531l0 55.258535c0 2.825348 2.291183 5.116531 5.116531 5.116531l753.153362 0c2.826372 0 5.116531-2.291183 5.116531-5.116531L891.986849 275.611543zM891.986849-74.359176c0-2.826372-2.290159-5.116531-5.116531-5.116531l-753.153362 0c-2.825348 0-5.116531 2.290159-5.116531 5.116531l0 55.258535c0 2.826372 2.291183 5.116531 5.116531 5.116531l753.153362 0c2.826372 0 5.116531-2.290159 5.116531-5.116531L891.986849-74.359176z"  horiz-adv-x="1024" />

    
    <glyph glyph-name="money" unicode="&#59041;" d="M706.56 379.904c-30.72 36.864-90.112 77.824-173.056 116.736L533.504 729.088c10.24-2.048 24.576-9.216 37.888-15.36L686.08 626.688l23.552 0L709.632 760.832c-75.776 15.36-136.192 24.576-176.128 27.648l0 102.4-45.056 0 0-102.4c-57.344-5.12-105.472-22.528-144.384-51.2-44.032-36.864-65.536-82.944-65.536-137.216 0-56.32 16.384-101.376 52.224-134.144 32.768-30.72 83.968-63.488 150.528-94.208 2.048-1.024 6.144-3.072 7.168-5.12l0-332.8c-8.192-1.024-17.408-2.048-27.648-2.048-19.456 0-35.84 6.144-52.224 17.408l-118.784 86.016-22.528 0 0-133.12c75.776-15.36 139.264-24.576 186.368-24.576 12.288 0 23.552 1.024 34.816 1.024l0-101.376 45.056 0L533.504-16.384c58.368 8.192 107.52 28.672 145.408 58.368 51.2 44.032 76.8 106.496 76.8 183.296C755.712 287.744 738.304 340.992 706.56 379.904zM488.448 516.096c-9.216 5.12-20.48 9.216-28.672 13.312-12.288 5.12-22.528 12.288-29.696 16.384-35.84 19.456-52.224 50.176-52.224 92.16 0 23.552 9.216 45.056 28.672 64.512 20.48 16.384 47.104 28.672 81.92 30.72L488.448 516.096zM533.504 44.032 533.504 344.064c23.552-14.336 44.032-27.648 54.272-37.888 28.672-29.696 44.032-68.608 44.032-115.712C631.808 114.688 596.992 65.536 533.504 44.032z"  horiz-adv-x="1024" />

    
    <glyph glyph-name="jiatingbaoxiu" unicode="&#58893;" d="M944.064948 478.431719 821.993728 583.704344 821.993728 748.332822c-63.772442 77.648474-111.991654-4.480035-111.991654-4.480035l0-60.476373L582.328253 794.249595c-74.969459 75.407434-146.709363 0-146.709363 0S189.981401 580.365296 107.482455 509.788891c-95.128591-81.380472-7.839549-121.510448-7.839549-121.510448l89.638553-43.855834 1.075495-152.690588-76.155471-69.435419c-53.756321-78.394465 14.559601-142.229329 14.559601-142.229329 96.312556-96.314603 187.026604 12.317537 187.026604 12.317537l465.887776 0c39.197744 5.600555 45.916772 57.116859 45.916772 57.116859l3.359514 287.819195 107.512642 50.395784C985.501686 431.393403 944.064948 478.431719 944.064948 478.431719zM748.723981 731.071693l37.862329 0 0-113.842815-37.862329 38.629809L748.723981 731.071693zM264.858762 4.442428c0 0-44.236504-53.197596-97.432053 0 0 0-43.677778 39.197744 0 87.352487l212.785268 212.785268c0 0-18.980283 180.867324 155.668409 173.262112l3.359514-32.152281-62.715367-59.355853 78.394465-82.873476 71.675436 64.956408 31.357172-6.719028c0 0 14.619976-173.574221-181.426049-151.189398L264.858762 4.442428zM894.85313 412.729322l-107.512642-48.157813-7.838525-281.101189c-2.238994-53.755298-34.716686-54.874795-34.716686-54.874795L360.649432 28.595524l131.031289 131.031289c269.321912-2.629897 202.724121 233.786581 202.724121 233.786581l-82.96148 10.287297-52.364625-48.51597-27.366278 29.701462 50.990325 48.096415-9.476839 90.356914c-261.113973 26.2652-245.054205-199.087291-245.054205-199.087291l-94.073562-92.953042 1.119497 146.710386-83.995019 38.0762c-48.155766 20.160155-5.599532 61.596893-5.599532 61.596893l304.619836 271.022647c61.754482 59.355853 118.711705 2.238994 118.711705 2.238994l325.897442-294.54027C932.931377 430.648436 894.85313 412.729322 894.85313 412.729322z"  horiz-adv-x="1024" />

    
    <glyph glyph-name="jiejuefangan" unicode="&#58953;" d="M738.189555 331.599559c-87.367837 0-158.193929-70.825069-158.193929-158.192905s70.825069-158.192905 158.193929-158.192905 158.192905 70.825069 158.192905 158.192905S825.557392 331.599559 738.189555 331.599559zM831.886541 212.331175 717.231221 97.675856c-7.936763-7.936763-20.700461-7.933693-28.634154 0l-46.471404 46.471404c-7.930623 7.930623-7.93574 20.698414 0 28.634154 7.933693 7.933693 20.703531 7.930623 28.634154 0l32.153304-32.153304 100.337219 100.337219c7.936763 7.936763 20.695345 7.938809 28.634154-0.001023C839.820234 233.031637 839.823304 220.267938 831.886541 212.331175L831.886541 212.331175zM909.946384 722.64272c0 39.623439-34.669614 74.29203-74.293053 74.29203L241.323231 796.93475c-39.623439 0-74.29203-34.669614-74.29203-74.29203l0-643.85812c0-39.623439 34.669614-74.293053 74.29203-74.293053l305.492716 0c0.663102-0.044002 1.330298-0.073678 2.004657-0.073678 16.671705 0 30.187533 13.515828 30.187533 30.187533 0 16.143679-12.672624 29.327956-28.612665 30.146601l0.001023 0.076748L227.367381 64.82875 227.367381 738.534665l622.242823 0 0-375.537002c-0.036839-0.610914-0.061398-1.225921-0.061398-1.847068s0.024559-1.235131 0.061398-1.847068l0-0.38067 0.028653 0c1.140986-15.631002 14.174837-27.960819 30.097482-27.960819 16.147772 0 29.335119 12.679787 30.147624 28.625968l0.062422 0.001023L909.946384 722.64272zM535.711028 353.031685c0 9.971096-8.265244 18.159592-18.178011 18.159592L343.961866 371.191276c-9.909697 0-18.179035-8.18952-18.179035-18.159592 0-9.890254 8.269337-18.155499 18.179035-18.155499l173.571151 0C527.445784 334.876186 535.711028 343.14143 535.711028 353.031685zM343.961866 257.330042c-9.909697 0-18.179035-8.18952-18.179035-18.159592 0-9.889231 8.269337-18.155499 18.179035-18.155499l91.657536 0c9.912767 0 18.178011 8.265244 18.178011 18.155499 0 9.971096-8.265244 18.159592-18.178011 18.159592L343.961866 257.330042zM633.838929 485.053534 343.961866 485.053534c-9.909697 0-18.179035-8.192589-18.179035-18.158568 0-9.890254 8.269337-18.159592 18.179035-18.159592l289.877063 0c9.890254 0 18.159592 8.270361 18.159592 18.159592C651.998521 476.860944 643.72816 485.053534 633.838929 485.053534zM723.94411 598.912721 343.961866 598.912721c-9.909697 0-18.179035-8.265244-18.179035-18.154475 0-9.891278 8.269337-18.159592 18.179035-18.159592l379.982244 0c9.890254 0 18.159592 8.269337 18.159592 18.159592C742.103702 590.647477 733.833341 598.912721 723.94411 598.912721z"  horiz-adv-x="1024" />

    
    <glyph glyph-name="jiejuefangan1" unicode="&#58958;" d="M738.189555 331.599559c-87.367837 0-158.193929-70.825069-158.193929-158.192905s70.825069-158.192905 158.193929-158.192905 158.192905 70.825069 158.192905 158.192905S825.557392 331.599559 738.189555 331.599559zM831.886541 212.331175 717.231221 97.675856c-7.936763-7.936763-20.700461-7.933693-28.634154 0l-46.471404 46.471404c-7.930623 7.930623-7.93574 20.698414 0 28.634154 7.933693 7.933693 20.703531 7.930623 28.634154 0l32.153304-32.153304 100.337219 100.337219c7.936763 7.936763 20.695345 7.938809 28.634154-0.001023C839.820234 233.031637 839.823304 220.267938 831.886541 212.331175L831.886541 212.331175zM909.946384 722.64272c0 39.623439-34.669614 74.29203-74.293053 74.29203L241.323231 796.93475c-39.623439 0-74.29203-34.669614-74.29203-74.29203l0-643.85812c0-39.623439 34.669614-74.293053 74.29203-74.293053l305.492716 0c0.663102-0.044002 1.330298-0.073678 2.004657-0.073678 16.671705 0 30.187533 13.515828 30.187533 30.187533 0 16.143679-12.672624 29.327956-28.612665 30.146601l0.001023 0.076748L227.367381 64.82875 227.367381 738.534665l622.242823 0 0-375.537002c-0.036839-0.610914-0.061398-1.225921-0.061398-1.847068s0.024559-1.235131 0.061398-1.847068l0-0.38067 0.028653 0c1.140986-15.631002 14.174837-27.960819 30.097482-27.960819 16.147772 0 29.335119 12.679787 30.147624 28.625968l0.062422 0.001023L909.946384 722.64272zM309.389466 392.320503 309.389466 392.320503c-9.909697 0-18.179035 8.266267-18.179035 18.155499 0 9.970072 8.269337 18.159592 18.179035 18.159592l359.924419 0c9.912767 0 18.178011-8.188496 18.178011-18.159592 0-9.890254-8.265244-18.155499-18.178011-18.155499L309.389466 392.320503 309.389466 392.320503 309.389466 392.320503 309.389466 392.320503zM309.389466 476.592838 309.389466 476.592838c-9.909697 0-18.179035 8.269337-18.179035 18.159592 0 9.965979 8.269337 18.158568 18.179035 18.158568l250.967892 0c9.890254 0 18.159592-8.192589 18.159592-18.158568 0-9.890254-8.269337-18.159592-18.159592-18.159592L309.389466 476.592838 309.389466 476.592838 309.389466 476.592838 309.389466 476.592838zM309.389466 308.045097 309.389466 308.045097c-9.909697 0-18.179035 8.269337-18.179035 18.159592 0 9.965979 8.269337 18.158568 18.179035 18.158568l169.054277 0c9.890254 0 18.159592-8.192589 18.159592-18.158568 0-9.890254-8.269337-18.159592-18.159592-18.159592L309.389466 308.045097 309.389466 308.045097 309.389466 308.045097 309.389466 308.045097zM309.389466 560.868243 309.389466 560.868243c-9.909697 0-18.179035 8.268314-18.179035 18.159592 0 9.889231 8.269337 18.154475 18.179035 18.154475l435.273525 0c9.889231 0 18.159592-8.265244 18.159592-18.154475 0-9.890254-8.269337-18.159592-18.159592-18.159592L309.389466 560.868243 309.389466 560.868243 309.389466 560.868243 309.389466 560.868243z"  horiz-adv-x="1024" />

    
    <glyph glyph-name="iconfontzuo" unicode="&#58951;" d="M522.66666666 874.66666666C257.57866666 874.66666666 42.66666666 659.75466666 42.66666666 394.66666666 42.66666666 129.57866665999995 257.57866666-85.33333333999997 522.66666666-85.33333333999997c265.088 0 480 214.912 480 480C1002.66666666 659.75466666 787.75466666 874.66666666 522.66666666 874.66666666zM522.66666666-21.333333339999967C293.29066666-21.333333339999967 106.66666666 165.29066666000006 106.66666666 394.66666666S293.29066666 810.66666666 522.66666666 810.66666666 938.66666666 624.04266666 938.66666666 394.66666666 752.04266666-21.333333339999967 522.66666666-21.333333339999967zM585.19466666 171.05066666000005c-8.192 0-16.384 3.136-22.656 9.344L370.98666666 372.01066665999997c-0.064 0-0.064 0.064-0.064 0.064 0 0 0 0-0.064 0.064 0 0 0 0 0 0 0 0 0 0-0.064 0.064l0 0c0 0 0 0-0.064 0.064l0 0c0 0-0.064 0.064-0.064 0.064s0 0 0 0c0 0 0.448 0 0.448 0.064l0 0C365.29066666 378.41066665999995 362.66666666 386.15466666 362.66666666 393.89866666l0 0c0 0 0 0.064 0 0.064 0 0-0.512 0-0.512 0 0 0-0.256 0-0.256 0.064 0 0 0.384 0 0.384 0 0 0 0.384 0 0.384 0.064 0 0 0 0 0 0.064l-0.512 0c0 0-0.256 0-0.256 0.064 0 0-0.128 0-0.128 0 0 0-0.064 0-0.064 0.064 0 0 0 0 0 0 0 0 0 0 0 0.064l0 0 0 0c0 0 0 0.064 0 0.064 0 0 0 0 0 0 0 0 0 0.064 0 0.064 0 0 0 0 0 0 0 0 0.512 0.064 0.512 0.064l0.512 0c0 0.064 0 0.064 0 0.064 0 0-0.512 0.064-0.512 0.064 0 0-0.256 0-0.256 0 0 0 0.384 0.064 0.384 0.064 0 0 0.384 0 0.384 0 0 0 0 0.064 0 0.064l0 0c0 7.808 2.624 15.488 8.448 21.504l0 0c0 0-0.192 0.064-0.192 0.064 0 0-0.064 0-0.064 0s0 0 0 0.064l0 0c0 0 0 0 0 0.064l0 0c0 0 0.064 0.064 0.064 0.064 0 0 0 0 0 0 0 0 0 0 0.064 0.064 0 0 0 0 0.064 0.064l192.768 192.832c12.48 12.48 32.768 12.48 45.248 0s12.48-32.768 0-45.248L438.89066666 394.60266666l168.896-168.96c12.48-12.48 12.48-32.768 0-45.248C601.51466666 174.18666666000001 593.32266666 171.05066666000005 585.19466666 171.05066666000005z"  horiz-adv-x="1024" />

    
    <glyph glyph-name="follow" unicode="&#59243;" d="M1024.091 382.098c0-0.439 0-0.878-0.073-1.317 0-0.219 0-0.439-0.073-0.731-0.073-0.366-0.073-0.658-0.073-0.951-0.146-0.366-0.146-0.731-0.293-1.097 0 0 0 0 0-0.146-1.317-8.119-4.827-15.726-10.679-21.577-10.752-13.239-22.528-25.6-34.377-37.595-63.781-65.317-136.997-123.392-217.234-165.669-51.127-26.917-105.911-48.64-162.743-59.246-62.464-11.483-124.928-10.825-187.026 2.633-107.52 23.552-204.873 81.92-289.938 151.845-39.278 32.549-78.19 68.096-110.885 108.032-14.263 17.262-14.263 38.034 0 55.515 10.752 13.093 22.528 25.381 34.304 37.522 63.854 65.243 137.070 123.465 217.234 165.669 51.127 26.843 105.911 48.713 162.743 59.099 62.391 11.557 124.855 10.898 187.026-2.633 107.52-23.552 204.727-81.92 289.865-151.771 39.497-32.402 78.336-67.95 111.104-107.813 5.705-5.925 9.435-13.678 10.679-21.723 0 0 0-0.073 0-0.146 0.073-0.293 0.146-0.658 0.146-1.17 0.073-0.366 0.073-0.585 0.073-0.951 0.073-0.219 0.219-0.439 0.219-0.658 0-0.439 0.073-0.878 0.073-1.39 0-0.731 0.073-1.39 0.073-1.902s-0.073-1.243-0.146-1.829zM512.165 585.435c-106.057 0-192-86.528-192-193.317 0-106.715 85.943-193.39 192-193.39 105.911 0 192 86.674 192 193.39 0 106.789-86.016 193.317-192 193.317zM512.165 295.424c-53.102 0-96.037 43.227-96.037 96.695 0 53.321 43.008 96.549 96.037 96.549 53.029 0 95.963-43.301 95.963-96.549 0-53.467-42.935-96.695-95.963-96.695z"  horiz-adv-x="1025" />

    
    <glyph glyph-name="gou" unicode="&#59320;" d="M1015.476371 626.026242c0 0-163.133428-56.354496-348.136955-265.37195C492.739842 163.38951 452.98542 85.038024 382.7201-20.9151c0 0-103.174847 195.677635-371.784538 339.764264L149.154553 451.053162c0 0 130.389676-90.399893 217.554898-247.830435 0 0 222.35932 345.100806 648.765897 508.736677L1015.475348 626.026242z"  horiz-adv-x="1024" />

    
    <glyph glyph-name="ios" unicode="&#58899;" d="M836.608 220.16q41.984-59.392 96.256-76.8-23.552-72.704-74.752-151.552-78.848-118.784-155.648-118.784-28.672 0-84.992 19.456-52.224 19.456-91.136 19.456t-86.016-20.48q-49.152-19.456-80.896-19.456-92.16 0-181.248 156.672-89.088 154.624-89.088 304.128 0 138.24 67.584 226.304 69.632 88.064 172.032 88.064 22.528 0 50.176-5.632t57.344-20.992q31.744-17.408 52.224-24.064t31.744-6.656q13.312 0 40.96 6.144t55.296 22.528q29.696 16.384 51.2 24.576t44.032 8.192q71.68 0 129.024-38.912 30.72-20.48 62.464-60.416-47.104-40.96-68.608-71.68-39.936-57.344-39.936-124.928 0-74.752 41.984-135.168zM630.784 698.368q-35.84-33.792-65.536-44.032-10.24-3.072-26.112-5.632t-36.352-4.608q1.024 90.112 47.104 155.648t151.552 90.112q2.048-10.24 3.072-14.336v-11.264q0-36.864-17.408-82.944-18.432-45.056-56.32-82.944z"  horiz-adv-x="1024" />

    
    <glyph glyph-name="iconset0127" unicode="&#58962;" d="M541.696 384l340.992 340.992c4.096 4.096 4.096 8.192 4.096 13.312 0 12.288-8.192 21.504-21.504 21.504-4.096 0-13.312-4.096-13.312-4.096L512 413.696 171.008 754.688c-4.096 0-8.192 4.096-13.312 4.096-12.288 0-21.504-8.192-21.504-21.504 0-4.096 0-13.312 4.096-13.312L482.304 384 141.312 43.008c-4.096-4.096-4.096-8.192-4.096-13.312 0-12.288 8.192-21.504 21.504-21.504 4.096 0 13.312 4.096 13.312 4.096L512 354.304l340.992-340.992c4.096-4.096 8.192-4.096 13.312-4.096 12.288 0 21.504 8.192 21.504 21.504 0 4.096-4.096 13.312-4.096 13.312L541.696 384z"  horiz-adv-x="1024" />

    
    <glyph glyph-name="yingxiao" unicode="&#58945;" d="M507.764078 494.869852 621.366428 164.944672 682.988979 147.023565C709.69892 133.853418 739.444617 144.095683 747.429758 169.212305L771.801584 211.15542 891.7379 442.561839C904.681141 469.385672 894.354052 499.377716 869.360803 507.549647L487.178788 683.484492C462.185915 691.652182 425.559141 701.4066 395.818286 691.166002L286.760414 653.614366 428.522136 596.187126C455.230396 583.021859 487.108555 554.857845 507.764078 494.869852L507.764078 494.869852ZM285.417031-43.761024 592.757276 62.064709C617.543904 70.599429 627.251924 90.715595 618.645064 115.711732L482.667297 510.61984C474.061782 535.612072 452.099823 567.190507 427.107919 575.358531L258.632386 645.954584C233.63951 654.122274 203.897687 643.881343 189.232537 622.0583L94.981044 460.998077C80.314926 439.174701 87.405487 402.475633 96.011003 377.483401L231.988769-17.424707C235.637528-44.128055 255.671335-54.003289 285.417031-43.761024L285.417031-43.761024ZM264.834696 519.854188C285.812333 527.077368 304.654233 517.789077 311.93889 496.632897 318.008571 479.005266 310.093658 456.559278 289.116022 449.336098 271.632729 443.316118 249.296492 451.401206 242.012544 472.555326 234.727887 493.711506 243.857065 512.631011 264.834696 519.854188L264.834696 519.854188Z"  horiz-adv-x="1024" />

    
    <glyph glyph-name="gouwuche-copy" unicode="&#59006;" d="M1013.318 612.972c-5.165 7.135-13.437 11.373-22.256 11.373h-764.063l-52.463 219.533c-2.956 12.366-14.006 21.082-26.714 21.082h-115.701c-15.168 0-27.465-12.285-27.465-27.465 0-15.182 12.295-27.465 27.465-27.465h94.028l168.638-705.673c-41.965-12.96-72.751-51.654-72.751-97.817 0-56.727 46.141-102.86 102.845-102.86 56.714 0 102.854 46.133 102.854 102.86 0 17.387-4.749 33.531-12.397 47.903h244.8c-7.65-14.373-12.397-30.516-12.397-47.903 0-56.727 46.141-102.86 102.854-102.86 56.707 0 102.845 46.133 102.845 102.86 0 56.701-46.141 102.833-102.845 102.833h-400.531l-12.252 51.257h518.265c11.847 0 22.362 7.591 26.077 18.857l134.986 408.785c2.769 8.369 1.347 17.569-3.822 24.703zM750.595 54.443c26.419 0 47.917-21.484 47.917-47.903s-21.498-47.93-47.917-47.93c-26.426 0-47.922 21.51-47.922 47.93-0.001 26.419 21.497 47.903 47.922 47.903zM372.809 6.539c0-26.419-21.498-47.93-47.922-47.93-26.419 0-47.917 21.51-47.917 47.93 0 26.419 21.498 47.903 47.917 47.903 26.426 0 47.922-21.484 47.922-47.903z"  horiz-adv-x="1024" />

    
    <glyph glyph-name="weibiaoti1" unicode="&#58990;" d="M490.666667 853.333333l-469.333333-469.333333 128 0 0-384c0-42.666667 42.666667-85.333333 85.333333-85.333333l85.333333 0 42.666667 0c25.6 0 42.666667 17.066667 42.666667 42.666667l0 42.666667 0 42.666667 0 128c0 25.6 17.066667 42.666667 42.666667 42.666667l128 0c25.6 0 42.666667-17.066667 42.666667-42.666667l0-85.333333 0-85.333333 0-42.666667c0-25.6 17.066667-42.666667 42.666667-42.666667l42.666667 0 85.333333 0c42.666667 0 85.333333 42.666667 85.333333 85.333333l0 384 128 0L490.666667 853.333333z"  horiz-adv-x="1024" />

    
    <glyph glyph-name="sousuo1" unicode="&#59004;" d="M1012.367-117.139c-14.858-14.481-38.945-14.481-53.805 0l-152.192 156.862c-85.021-67.222-193.272-107.649-311.291-107.649-273.155-0.002-494.591 215.777-494.591 481.961s221.436 481.965 494.591 481.965c273.153 0 494.589-215.779 494.589-481.965 0-124.458-48.826-237.533-128.301-323.041l151-155.699c14.86-14.487 14.86-37.96 0-52.433zM495.079 798.565c-231.133 0-395.234-159.296-395.234-384.528 0-225.228 164.103-384.536 395.234-384.536 231.131 0 395.232 159.308 395.232 384.536 0 225.23-164.101 384.528-395.232 384.528z"  horiz-adv-x="1024" />

    
    <glyph glyph-name="jiankangzhuanjia" unicode="&#58979;" d="M892.886847 165.250904c-12.222369 35.128055-52.656267 40.162722-86.463234 54.31607-37.115316 15.504112-78.257342 33.526581-115.27749 48.588625-10.562567 2.857071-21.145599 5.704932-31.708166 8.570189-12.612249 8.619308-24.950252 37.21867-31.69384 51.444673-6.728238 0.942465-13.437034 1.899256-20.179598 2.847861 1.046842 22.018479 14.772448 23.189142 20.179598 40.003086 4.753257 14.856359 0.48914 34.133402 8.029884 47.844681 5.242398 9.54233 17.051351 9.605775 22.970154 17.767666 5.354961 7.42511 8.888438 20.35049 10.565636 29.452799 3.061732 16.600073 5.711072 39.32975-2.229784 55.790654-4.580319 9.469676-7.469112 10.377348-8.741082 21.864984-1.534959 13.913894 4.143367 59.32413 4.374634 69.13252 0.578168 25.474185-0.049119 27.535123-6.248308 52.353368 0 0-7.55814 22.477944-19.387559 29.229718l-23.580045 4.045129-14.575973 13.375635c-58.722426 35.859719-121.68134 10.712993-155.404396-2.850931-48.596811-15.625886-79.307254-62.828954-57.855686-163.633824 3.64604-17.213034-9.515724-24.907273-8.65717-34.296107 1.873674-20.555152 2.284019-69.953212 21.853727-82.126462 1.824555-1.104147 15.706727-4.574179 15.622816-3.617387 1.922792-20.020986 3.831258-40.034808 5.762237-60.030212 4.886287-13.294794 16.614399-14.761192 20.014846-33.529651l-15.012925-3.625574c-6.728238-14.226003-19.080567-42.825364-31.711236-51.444673-10.565636-2.865257-21.128203-5.713119-31.69384-8.570189-37.016055-15.062044-78.1765-33.084513-115.27749-48.588625-33.789571-14.153348-74.238818-19.188015-86.47756-54.31607 0-23.854291-2.24718-80.221066-1.645476-111.463628l323.092559 0 23.713075 160.66419-19.710924 41.252543 45.525869 21.642926 38.328957-21.191648-21.128203-42.49893 37.378306-159.869081 308.904419 0C895.16575 85.029838 892.886847 141.39559 892.886847 165.250904"  horiz-adv-x="1024" />

    
    <glyph glyph-name="jianquminus25" unicode="&#59024;" d="M900.54656 384.01024c0-37.56032-30.44352-68.00384-68.01408-68.00384L191.44704 316.0064c-18.76992 0-35.76832 7.60832-48.0768 19.9168-12.29824 12.29824-19.90656 29.29664-19.90656 48.06656-0.01024 37.57056 30.44352 68.01408 68.01408 68.00384l641.09568 0C870.12352 451.98336 900.53632 421.56032 900.54656 384.01024z"  horiz-adv-x="1024" />

    
    <glyph glyph-name="icon" unicode="&#58994;" d="M679.271166 729.20416c7.78429-31.82073 8.56405-34.497699 7.832386-67.148329-0.291642-12.603039-7.444553-70.848605-5.498224-88.659249 1.606591-14.742772 5.256724-15.910365 10.994402-28.028357 9.979282-21.167089 6.621814-50.314942 2.824325-71.579245-2.142803-11.68104-6.567579-28.271904-13.284561-37.761022-7.442506-10.465352-22.284539-10.55745-28.854165-22.820752-9.44-17.613146-4.087085-42.334177-10.073426-61.312414-6.763031-21.60404-24.035416-23.116487-25.350364-51.336202 8.469905-1.215688 16.884552-2.484587 25.350364-3.650133 8.465812-18.295692 23.989367-54.986335 39.804565-65.983807 13.284561-3.696182 26.52205-7.349385 39.804565-10.996448 46.470381-19.364023 98.149391-42.431392 144.764058-62.334697 42.431392-18.147312 75.762521-24.572652 91.092671-69.635987 0-30.651091 2.874467-82.867336 2.094708-122.961496L63.910077-35.003979c-0.779759 40.09416 2.045589 92.310406 2.045589 122.961496 15.376199 45.063335 56.202023 51.487651 98.634438 69.635987 46.567595 19.903306 98.243535 42.970674 144.764058 62.334697 13.234419 3.647063 26.521027 7.300266 39.802518 10.996448 15.815197 10.997472 31.338752 47.689139 39.804565 65.983807l18.833951 4.623297c-4.284583 24.088628-19.030425 25.935696-25.159006 43.014676-2.385327 25.6461-4.768607 51.339272-7.203052 76.983325 0.097214-1.218758-17.321504 3.212158-19.611663 4.671393-24.570605 15.615653-25.056676 78.975702-27.490098 105.297185-1.070378 12.021801 15.474436 21.946848 10.899234 44.040029-26.957978 129.24255 11.630898 189.775204 72.6486 209.822796 42.335201 17.418718 121.410164 49.635467 195.130166 3.698229l18.293645-17.225313 29.638017-5.155417C669.778978 758.013299 679.271166 729.20416 679.271166 729.20416z"  horiz-adv-x="1024" />

    
    <glyph glyph-name="shezhi" unicode="&#59042;" d="M1002.496 481.792c-5.44 28.672-22.592 47.04-43.456 46.528l-4.352 0c-71.808 0-130.24 58.432-130.24 130.24 0 23.68 11.264 49.6 11.328 49.792 11.072 24.96 2.56 55.616-19.84 71.232l-1.216 0.832-125.248 69.568-1.28 0.576c-7.424 3.2-15.552 4.864-24.192 4.864-17.856 0-35.328-7.104-46.784-19.008-15.296-15.808-63.488-56.768-102.4-56.768-39.296 0-87.808 41.792-103.168 57.856-11.52 12.16-29.12 19.392-47.168 19.392-8.448 0-16.448-1.6-23.744-4.672L339.2 851.776 209.536 780.544l-1.28-0.896C185.792 764.032 177.216 733.44 188.288 708.48c0.128-0.256 11.328-26.24 11.328-49.856 0-71.808-58.432-130.24-130.24-130.24L65.024 528.384c-20.928 0.512-38.08-17.92-43.456-46.528C21.12 479.552 11.072 425.856 11.072 383.616c0-42.304 10.048-95.936 10.496-98.176 5.376-28.288 22.08-46.592 42.688-46.592 0.256 0 0.512 0 0.768 0l4.352 0c71.808 0 130.24-58.432 130.24-130.24 0-23.68-11.264-49.6-11.328-49.792-11.072-24.96-2.56-55.616 19.776-71.232l1.216-0.832 122.88-68.736 1.28-0.576c7.424-3.264 15.488-4.928 24.128-4.928 18.048 0 35.648 7.424 47.04 19.84 14.4 15.68 64.576 60.352 104.704 60.352 40.448 0 89.792-44.416 105.408-61.504 11.456-12.608 29.184-20.16 47.36-20.16l0 0 0 0c8.448 0 16.384 1.6 23.68 4.736l1.344 0.576 127.36 70.4 1.28 0.896c22.4 15.616 30.976 46.272 19.904 71.168-0.128 0.256-11.328 26.24-11.328 49.856 0 71.808 58.432 130.24 130.24 130.24l4.352 0c20.928-0.448 38.08 17.92 43.456 46.528 0.448 2.24 10.496 55.936 10.496 98.176C1012.928 425.856 1002.88 479.552 1002.496 481.792L1002.496 481.792zM509.824 210.752c-95.68 0-173.504 77.824-173.504 173.504 0 95.68 77.824 173.504 173.504 173.504 95.68 0 173.504-77.824 173.504-173.504C683.264 288.576 605.44 210.752 509.824 210.752L509.824 210.752zM509.824 210.752M509.824 498.752 509.824 498.752c-63.104 0-114.496-51.328-114.496-114.496 0-63.104 51.328-114.496 114.496-114.496 63.104 0 114.496 51.328 114.496 114.496C624.256 447.36 572.928 498.752 509.824 498.752L509.824 498.752zM509.824 498.752"  horiz-adv-x="1024" />

    
    <glyph glyph-name="msnui-operate" unicode="&#59271;" d="M121.22 845.28v0 0 0zM121.22 845.28zM375.74 611.1c0 83.34-70.2 150.96-156.9 150.96-86.58-0.060-156.84-67.62-156.84-150.96 0-40.56 16.68-77.4 43.74-104.58-7.38-29.76-11.22-60.72-11.22-92.64 0-143.52 78.54-269.46 196.5-340.020l31.38 123.96c-64.080 51.72-104.88 129.24-104.88 216 0 15.78 1.32 31.26 3.96 46.26 85.5 1.44 154.26 68.46 154.26 151.020v0 0 0zM510.32 695.4c54.24 0 104.94-14.16 148.56-38.94-6.9-16.98-10.56-35.4-10.56-54.66 0-83.4 70.2-150.96 156.78-150.96s156.9 67.62 156.9 150.96c0 83.34-70.32 150.96-156.9 150.96-20.28 0-39.72-3.72-57.42-10.44-67.38 45.12-149.040 71.58-237.36 71.58-59.76 0-116.58-12.18-167.94-34.020l71.7-100.020c30.12 10.080 62.52 15.54 96.24 15.54v0 0 0zM802.64 401.22c-4.68-102.6-66.54-190.98-155.64-236.4-25.92 48.9-78.78 82.38-139.74 82.38-86.7 0-156.9-67.62-156.9-150.96s70.2-151.020 156.9-151.020c64.98 0 120.9 38.1 144.54 92.34 159.96 55.74 274.2 203.22 274.2 376.26 0 8.88-0.36 17.64-0.96 26.34l-122.4-38.94zM802.64 401.22zM121.22 845.28v0 0 0zM121.22 845.28zM375.74 611.1c0 83.34-70.2 150.96-156.9 150.96-86.58-0.060-156.84-67.62-156.84-150.96 0-40.56 16.68-77.4 43.74-104.58-7.38-29.76-11.22-60.72-11.22-92.64 0-143.52 78.54-269.46 196.5-340.020l31.38 123.96c-64.080 51.72-104.88 129.24-104.88 216 0 15.78 1.32 31.26 3.96 46.26 85.5 1.44 154.26 68.46 154.26 151.020v0 0 0zM510.32 695.4c54.24 0 104.94-14.16 148.56-38.94-6.9-16.98-10.56-35.4-10.56-54.66 0-83.4 70.2-150.96 156.78-150.96s156.9 67.62 156.9 150.96c0 83.34-70.32 150.96-156.9 150.96-20.28 0-39.72-3.72-57.42-10.44-67.38 45.12-149.040 71.58-237.36 71.58-59.76 0-116.58-12.18-167.94-34.020l71.7-100.020c30.12 10.080 62.52 15.54 96.24 15.54v0 0 0zM802.64 401.22c-4.68-102.6-66.54-190.98-155.64-236.4-25.92 48.9-78.78 82.38-139.74 82.38-86.7 0-156.9-67.62-156.9-150.96s70.2-151.020 156.9-151.020c64.98 0 120.9 38.1 144.54 92.34 159.96 55.74 274.2 203.22 274.2 376.26 0 8.88-0.36 17.64-0.96 26.34l-122.4-38.94zM802.64 401.22zM121.22 845.28v0 0 0zM121.22 845.28zM375.74 611.1c0 83.34-70.2 150.96-156.9 150.96-86.58-0.060-156.84-67.62-156.84-150.96 0-40.56 16.68-77.4 43.74-104.58-7.38-29.76-11.22-60.72-11.22-92.64 0-143.52 78.54-269.46 196.5-340.020l31.38 123.96c-64.080 51.72-104.88 129.24-104.88 216 0 15.78 1.32 31.26 3.96 46.26 85.5 1.44 154.26 68.46 154.26 151.020v0 0 0zM510.32 695.4c54.24 0 104.94-14.16 148.56-38.94-6.9-16.98-10.56-35.4-10.56-54.66 0-83.4 70.2-150.96 156.78-150.96s156.9 67.62 156.9 150.96c0 83.34-70.32 150.96-156.9 150.96-20.28 0-39.72-3.72-57.42-10.44-67.38 45.12-149.040 71.58-237.36 71.58-59.76 0-116.58-12.18-167.94-34.020l71.7-100.020c30.12 10.080 62.52 15.54 96.24 15.54v0 0 0zM802.64 401.22c-4.68-102.6-66.54-190.98-155.64-236.4-25.92 48.9-78.78 82.38-139.74 82.38-86.7 0-156.9-67.62-156.9-150.96s70.2-151.020 156.9-151.020c64.98 0 120.9 38.1 144.54 92.34 159.96 55.74 274.2 203.22 274.2 376.26 0 8.88-0.36 17.64-0.96 26.34l-122.4-38.94zM802.64 401.22z"  horiz-adv-x="1024" />

    
    <glyph glyph-name="daipingjia01" unicode="&#58989;" d="M791.272727 537.6 791.272727 537.6l-418.909091 0 0 0c0 0 0 0 0 0-6.050909 0-12.101818-2.56-16.523636-6.749091-4.421818-4.421818-6.749091-10.472727-6.749091-16.523636 0-6.050909 2.56-12.101818 6.749091-16.523636 4.421818-4.421818 10.472727-6.749091 16.523636-6.749091 0 0 0 0 0 0l0 0 418.909091 0 0 0c6.050909 0 12.101818 2.56 16.523636 6.749091 4.421818 4.421818 6.749091 10.472727 6.749091 16.523636 0 6.050909-2.56 12.101818-6.749091 16.523636C803.374545 535.04 797.323636 537.6 791.272727 537.6zM791.272727 323.258182 791.272727 323.258182l-418.909091 0 0 0c0 0 0 0 0 0-6.050909 0-12.101818-2.56-16.523636-6.749091-4.421818-4.421818-6.749091-10.472727-6.749091-16.523636 0-6.050909 2.56-12.101818 6.749091-16.523636 4.421818-4.421818 10.472727-6.749091 16.523636-6.749091 0 0 0 0 0 0l0 0 418.909091 0 0 0c6.050909 0 12.101818 2.56 16.523636 6.749091 4.421818 4.421818 6.749091 10.472727 6.749091 16.523636 0 6.050909-2.56 12.101818-6.749091 16.523636C803.374545 320.698182 797.323636 323.258182 791.272727 323.258182zM900.654545 756.130909l-65.396364 0C823.854545 809.192727 776.843636 849.454545 720.989091 849.454545L116.829091 849.454545C52.596364 849.454545 0 796.392727 0 731.694545l0-462.429091C0 204.334545 52.596364 151.272727 116.829091 151.272727l25.367273 0c11.869091-53.061818 61.672727-93.323636 120.785455-93.323636l149.876364 0 113.338182-113.338182c17.221818-17.221818 39.098182-26.065455 59.578182-26.065455 15.825455 0 30.952727 5.352727 41.890909 16.523636l122.88 122.88L900.654545 57.949091c67.956364 0 123.345455 53.061818 123.345455 117.76L1024 638.370909C1024 703.069091 968.378182 756.130909 900.654545 756.130909zM165.934545 710.749091C149.410909 690.734545 139.636364 665.6 139.636364 638.370909L139.636364 197.818182l-22.807273 0C78.196364 197.818182 46.545455 229.701818 46.545455 269.032727L46.545455 731.694545C46.545455 771.025455 78.196364 802.909091 116.829091 802.909091l603.927273 0c30.254545 0 56.087273-19.549091 66.094545-46.778182L262.981818 756.130909c-27.461818 0-52.829091-8.610909-73.309091-23.272727C180.829091 726.574545 172.916364 719.127273 165.934545 710.749091zM974.661818 175.941818c0-39.098182-33.28-70.749091-74.007273-70.749091l-168.494545 0-137.076364-137.076364c-2.327273-2.327273-6.283636-2.792727-9.076364-2.792727-8.843636 0-18.850909 4.654545-26.763636 12.334545l-127.534545 127.534545-168.494545 0c-34.210909 0-62.836364 22.109091-71.447273 52.130909-1.629091 5.818182-2.56 12.101818-2.56 18.618182L189.207273 638.370909c0 39.098182 33.28 70.749091 74.007273 70.749091l621.381818 0 16.290909 0c40.727273 0 74.007273-31.650909 74.007273-70.749091L974.894545 175.941818z"  horiz-adv-x="1024" />

    
    <glyph glyph-name="jiahaocu" unicode="&#58980;" d="M984.293767 460.389314 590.464452 460.389314 590.464452 854.21682l-157.531364 0 0-393.827505L39.105583 460.389314l0-157.531364 393.827505 0 0-393.831124 157.531364 0L590.464452 302.857951l393.829314 0L984.293767 460.389314z"  horiz-adv-x="1024" />

    
    <glyph glyph-name="meiyuandollar153" unicode="&#59043;" d="M784.709818 205.637818C726.528 116.829091 626.082909 58.181818 512 58.181818c-114.129455 0-214.528 58.647273-272.709818 147.456-38.027636 32.628364-70.144 72.005818-94.487273 116.224C174.359273 145.780364 327.493818 11.636364 512 11.636364c184.459636 0 337.640727 134.144 367.197091 310.225455C854.853818 277.643636 822.737455 238.266182 784.709818 205.637818zM512-81.454545c-114.129455 0-214.528 58.647273-272.709818 147.456-38.027636 32.628364-70.144 72.005818-94.487273 116.224C174.359273 6.144 327.493818-128 512-128c184.459636 0 337.640727 134.144 367.197091 310.225455-24.343273-44.218182-56.459636-83.595636-94.487273-116.224C726.528-22.807273 626.082909-81.454545 512-81.454545zM549.376 536.203636C541.975273 541.509818 532.666182 547.141818 521.355636 553.146182 508.322909 560.034909 499.618909 566.039273 495.336727 571.066182c-4.375273 5.12-6.562909 11.589818-6.562909 19.362909 0 8.517818 2.699636 15.639273 8.098909 21.317818 5.399273 5.678545 12.241455 8.517818 20.433455 8.517818 13.265455 0 23.970909-8.750545 32.162909-26.251636l27.275636 17.873455c-6.330182 13.358545-13.032727 23.226182-20.014545 29.696-6.981818 6.469818-16.011636 10.705455-26.996364 12.8L529.733818 686.545455 505.297455 686.545455l0-32.162909C497.710545 652.101818 490.961455 648.936727 485.003636 644.887273c-5.957818-4.049455-10.984727-8.843636-15.034182-14.336S462.801455 618.821818 460.660364 612.072727C458.519273 605.277091 457.448727 597.969455 457.448727 590.103273c0-16.616727 4.514909-30.906182 13.591273-42.821818 5.678545-8.005818 17.594182-16.709818 35.700364-26.251636 8.750545-4.701091 15.965091-9.029818 21.597091-13.032727 5.632-4.002909 9.914182-7.586909 12.8-10.752 5.678545-6.562909 8.517818-15.266909 8.517818-26.065455 0-12.148364-3.397818-22.062545-10.193455-29.696-6.888727-7.773091-15.499636-11.636364-25.739636-11.636364-10.519273 0-18.990545 3.397818-25.320727 10.193455-6.050909 7.121455-11.170909 18.990545-15.406545 35.607273L442.181818 468.014545c4.561455-23.505455 11.636364-40.913455 21.271273-52.177455 9.588364-11.264 23.552-18.664727 41.844364-22.155636L505.297455 360.727273l24.482909 0 0 33.978182c15.778909 4.933818 28.346182 14.429091 37.794909 28.532364C577.070545 437.434182 581.818182 453.864727 581.818182 472.436364c0 18.897455-5.259636 35.048727-15.825455 48.407273C562.269091 525.777455 556.730182 530.897455 549.376 536.203636zM512 896C306.362182 896 139.636364 729.274182 139.636364 523.636364c0-205.637818 166.725818-372.363636 372.363636-372.363636 205.637818 0 372.363636 166.725818 372.363636 372.363636C884.363636 729.274182 717.637818 896 512 896zM512 197.818182c-179.944727 0-325.818182 145.873455-325.818182 325.818182 0 179.944727 145.873455 325.818182 325.818182 325.818182s325.818182-145.873455 325.818182-325.818182C837.818182 343.691636 691.944727 197.818182 512 197.818182z"  horiz-adv-x="1024" />

    
    <glyph glyph-name="zhankai" unicode="&#59036;" d="M928 704.003 96 704.003c-8.837 0-16-7.163-16-16l0-32.004c0-8.835 7.163-15.998 16-15.998l832 0c8.837 0 16 7.163 16 15.998l0 32.004C944 696.839 936.837 704.003 928 704.003zM928 416.003 96 416.003c-8.837 0-16-7.163-16-16l0-32.004c0-8.835 7.163-15.998 16-15.998l832 0c8.837 0 16 7.163 16 15.998l0 32.004C944 408.839 936.837 416.003 928 416.003zM928 127.003 96 127.003c-8.837 0-16-7.163-16-16l0-32.004c0-8.835 7.163-15.998 16-15.998l832 0c8.837 0 16 7.163 16 15.998l0 32.004C944 119.839 936.837 127.003 928 127.003z"  horiz-adv-x="1024" />

    
    <glyph glyph-name="tabshouqi" unicode="&#59099;" d="M946.33106 198.646502 541.30749 611.906663c-15.690354 16.009625-41.469484 16.009625-57.160861 0l-405.024593-413.260162c-24.819269-25.323758-6.877641-68.028373 28.579919-68.028373l810.048163 0C953.209724 130.618129 971.150328 173.322743 946.33106 198.646502z"  horiz-adv-x="1024" />

    
    <glyph glyph-name="fuwu2" unicode="&#59141;" d="M896 442.24 896 448c0 211.84-172.16 384-384 384C300.16 832 128 659.84 128 448l0-5.76C90.88 428.8 64 393.6 64 352l0-128C64 170.88 106.88 128 160 128 213.12 128 256 170.88 256 224l0 128c0 41.6-26.88 76.8-64 90.24L192 448c0 176.64 143.36 320 320 320s320-143.36 320-320l0-5.76c-37.12-13.44-64-48.64-64-90.24l0-128c0-53.12 42.88-96 96-96 53.12 0 96 42.88 96 96l0 128C960 393.6 933.12 428.8 896 442.24zM640-61.44 640-32c0 17.92-14.08 32-32 32l-128 0C462.08 0 448-14.08 448-32l0-64C448-113.92 462.08-128 480-128l128 0c159.36 0 288 114.56 288 256l-32 0L832 128C832 31.36 748.16-48 640-61.44z"  horiz-adv-x="1024" />

    
    <glyph glyph-name="paixujiantouxia" unicode="&#59213;" d="M757.76 258.56l-218.88-245.76c-14.72-16.64-40.32-16.64-54.4 0L265.6 258.56C244.48 282.24 261.12 320 293.12 320l437.76 0C762.24 320 779.52 282.24 757.76 258.56z"  horiz-adv-x="1024" />

    
    <glyph glyph-name="fanhui" unicode="&#59001;" d="M1024 384c0-281.6-230.4-512-512-512-281.6 0-512 230.4-512 512s230.4 512 512 512C793.6 896 1024 665.6 1024 384zM70.4 384c0-243.2 198.4-441.6 441.6-441.6 243.2 0 441.6 198.4 441.6 441.6 0 243.2-198.4 441.6-441.6 441.6C268.8 825.6 70.4 627.2 70.4 384zM646.4 582.4 448 384l198.4-198.4c12.8-12.8 12.8-32 0-51.2-12.8-12.8-32-12.8-51.2 0L377.6 358.4C371.2 364.8 364.8 377.6 364.8 384c0 6.4 6.4 19.2 12.8 25.6l217.6 217.6C614.4 640 633.6 640 646.4 627.2 659.2 614.4 659.2 595.2 646.4 582.4z"  horiz-adv-x="1024" />

    
    <glyph glyph-name="qian" unicode="&#58993;" d="M934.4 633.6l0-544 0 0c-6.4-121.6-192-217.6-416-217.6-230.4 0-409.6 96-416 217.6l0 0L102.4 633.6c0 12.8 0 19.2 0 32C89.6 793.6 275.2 896 512 896c236.8 0 422.4-102.4 422.4-230.4C934.4 652.8 934.4 640 934.4 633.6zM512 819.2c-204.8 0-358.4-83.2-358.4-160 0-76.8 153.6-160 358.4-160 204.8 0 358.4 83.2 358.4 160C870.4 736 716.8 819.2 512 819.2zM870.4 531.2c-76.8-64-211.2-102.4-364.8-102.4-147.2 0-288 38.4-358.4 102.4l0-38.4C166.4 409.6 332.8 345.6 512 345.6c179.2 0 345.6 70.4 364.8 147.2L876.8 531.2zM870.4 384c-70.4-64-211.2-102.4-364.8-102.4C358.4 281.6 224 326.4 147.2 384l0-32c19.2-83.2 185.6-147.2 358.4-147.2 179.2 0 345.6 70.4 364.8 147.2L870.4 384zM870.4 249.6c-70.4-64-211.2-102.4-364.8-102.4-147.2 0-288 38.4-358.4 102.4l0-32c19.2-83.2 185.6-147.2 358.4-147.2 179.2 0 345.6 70.4 364.8 147.2L870.4 249.6zM870.4 89.6l0 19.2c-70.4-64-211.2-102.4-364.8-102.4-147.2 0-288 38.4-358.4 102.4l0-19.2 0 0C160 6.4 326.4-64 512-64 691.2-64 864 6.4 870.4 89.6L870.4 89.6zM588.8 665.6C608 659.2 620.8 640 620.8 627.2c0-25.6-12.8-38.4-38.4-51.2C563.2 569.6 544 563.2 524.8 563.2l0-25.6L505.6 537.6 505.6 563.2c-25.6 0-51.2 6.4-64 12.8C416 588.8 403.2 601.6 403.2 627.2l57.6 0c0-12.8 6.4-19.2 6.4-25.6 6.4-6.4 19.2-12.8 32-12.8L499.2 652.8 486.4 659.2C460.8 659.2 441.6 665.6 428.8 678.4 416 684.8 409.6 697.6 409.6 710.4c0 6.4 0 19.2 6.4 25.6 6.4 6.4 12.8 12.8 19.2 19.2C448 761.6 454.4 761.6 467.2 768 480 768 486.4 768 505.6 768L505.6 787.2l19.2 0L524.8 768C544 768 563.2 761.6 576 755.2c25.6-12.8 38.4-25.6 38.4-44.8L556.8 710.4c0 6.4-6.4 12.8-6.4 19.2C544 736 537.6 736 524.8 736l0-51.2C556.8 678.4 582.4 672 588.8 665.6zM524.8 595.2c12.8 0 19.2 0 25.6 6.4 6.4 6.4 12.8 12.8 12.8 19.2 0 6.4-6.4 12.8-12.8 19.2C544 640 537.6 646.4 524.8 646.4L524.8 595.2zM505.6 736c-12.8 0-19.2 0-25.6-6.4C467.2 729.6 467.2 723.2 467.2 716.8c0-6.4 6.4-12.8 12.8-19.2 6.4 0 12.8-6.4 25.6-6.4L505.6 736z"  horiz-adv-x="1024" />

    
    <glyph glyph-name="leimupinleifenleileibie2" unicode="&#59384;" d="M320 832 192 832C121.6 832 64 774.4 64 704l0-128c0-70.4 57.6-128 128-128l128 0c70.4 0 128 57.6 128 128L448 704C448 774.4 390.4 832 320 832zM768 832l-128 0C569.6 832 512 774.4 512 704l0-128c0-70.4 57.6-128 128-128l128 0c70.4 0 128 57.6 128 128L896 704C896 774.4 838.4 832 768 832zM320 384 192 384c-70.4 0-128-57.6-128-128l0-128c0-70.4 57.6-128 128-128l128 0c70.4 0 128 57.6 128 128l0 128C448 326.4 390.4 384 320 384zM768 384l-128 0c-70.4 0-128-57.6-128-128l0-128c0-70.4 57.6-128 128-128l128 0c70.4 0 128 57.6 128 128l0 128C896 326.4 838.4 384 768 384z"  horiz-adv-x="1024" />

    
    <glyph glyph-name="paixujiantoushang" unicode="&#59390;" d="M758.4 510.08 539.52 755.84c-14.72 16.64-40.32 16.64-54.4 0L266.24 510.08C244.48 486.4 261.76 448 293.12 448l437.76 0C762.88 448 779.52 486.4 758.4 510.08z"  horiz-adv-x="1024" />

    
    <glyph glyph-name="riliriqi" unicode="&#59399;" d="M480 256l64 0C561.92 256 576 270.08 576 288S561.92 320 544 320l-64 0C462.08 320 448 305.92 448 288S462.08 256 480 256zM480 128l64 0C561.92 128 576 142.08 576 160 576 177.92 561.92 192 544 192l-64 0C462.08 192 448 177.92 448 160 448 142.08 462.08 128 480 128zM832 704l-128 0L704 736C704 753.92 689.92 768 672 768 654.08 768 640 753.92 640 736L640 704 384 704 384 736C384 753.92 369.92 768 352 768S320 753.92 320 736L320 704 192 704C121.6 704 64 646.4 64 576l0-512c0-70.4 57.6-128 128-128l640 0c70.4 0 128 57.6 128 128L960 576C960 646.4 902.4 704 832 704zM896 64c0-35.2-28.8-64-64-64L192 0c-35.2 0-64 28.8-64 64L128 448l768 0L896 64zM896 512 128 512 128 576c0 35.2 28.8 64 64 64l128 0 0-32C320 590.08 334.08 576 352 576S384 590.08 384 608L384 640l256 0 0-32C640 590.08 654.08 576 672 576 689.92 576 704 590.08 704 608L704 640l128 0c35.2 0 64-28.8 64-64L896 512zM288 128l64 0C369.92 128 384 142.08 384 160 384 177.92 369.92 192 352 192l-64 0C270.08 192 256 177.92 256 160 256 142.08 270.08 128 288 128zM672 256l64 0c17.92 0 32 14.08 32 32S753.92 320 736 320l-64 0C654.08 320 640 305.92 640 288S654.08 256 672 256zM288 256l64 0C369.92 256 384 270.08 384 288S369.92 320 352 320l-64 0C270.08 320 256 305.92 256 288S270.08 256 288 256zM672 128l64 0c17.92 0 32 14.08 32 32 0 17.92-14.08 32-32 32l-64 0c-17.92 0-32-14.08-32-32C640 142.08 654.08 128 672 128z"  horiz-adv-x="1024" />

    
    <glyph glyph-name="gouwuche" unicode="&#59007;" d="M1007.4 670.3c-4.6 5.9-11.7 9.7-19.2 9.7L201.2 680 167.8 855.5C165.6 867 155.5 875 143.7 875L34 875C20.5 875 9.6 864 9.6 850.5S20.5 826 34 826l89.5 0L155 650.6c0-0.1 0-0.2 0-0.4l98.8-513.6C256 125.1 267 117 278.7 117l587.2 0c13.5 0 24.5 11 24.5 24.5s-11 24.5-24.5 24.5L298.9 166l-15.1 77.2 612.3-3.2c0 0 0 0 0 0 11.3 0 21.2 9.5 23.8 20.5l92 389C1013.7 656.9 1012 664.5 1007.4 670.3zM876.8 292.3l-602.3 1.2-44.6 233.9L210.5 630l746.8 0L876.8 292.3zM353.1 66.6c-47.2 0-85.6-38.4-85.6-85.6s38.4-85.6 85.6-85.6c47.2 0 85.6 38.4 85.6 85.6S400.3 66.6 353.1 66.6zM353.1-55.8c-20.2 0-36.7 16.5-36.7 36.7 0 20.2 16.5 36.7 36.7 36.7 20.2 0 36.7-16.5 36.7-36.7C389.8-39.3 373.3-55.8 353.1-55.8zM769 66.6c-47.2 0-85.6-38.4-85.6-85.6s38.4-85.6 85.6-85.6c47.2 0 85.6 38.4 85.6 85.6S816.3 66.6 769 66.6zM769-55.8c-20.2 0-36.7 16.5-36.7 36.7 0 20.2 16.5 36.7 36.7 36.7 20.2 0 36.7-16.5 36.7-36.7C805.7-39.3 789.3-55.8 769-55.8z"  horiz-adv-x="1024" />

    
    <glyph glyph-name="cuowu" unicode="&#58973;" d="M512-121.279c-279.061 0-505.282 226.223-505.282 505.282s226.221 505.279 505.282 505.279c279.059 0 505.282-226.223 505.282-505.282s-226.223-505.279-505.282-505.279zM512 826.122c-244.169 0-442.122-197.949-442.122-442.122s197.952-442.119 442.122-442.119c244.169 0 442.119 197.949 442.119 442.119s-197.949 442.122-442.119 442.122zM556.841 383.836l133.803-133.827c12.337-12.316 12.337-32.32 0-44.653-12.333-12.337-32.337-12.337-44.653 0l-133.827 133.803-134.708-134.708c-12.439-12.437-32.587-12.437-45.005 0-12.439 12.437-12.439 32.587 0 45.007l134.708 134.727-133.806 133.806c-12.335 12.335-12.335 32.32 0 44.657 12.337 12.333 32.32 12.333 44.657 0l133.806-133.806 135.716 135.716c12.437 12.419 32.587 12.419 45.007 0 12.437-12.437 12.437-32.587 0-45.026l-135.7-135.698z"  horiz-adv-x="1024" />

    
    <glyph glyph-name="yonghutouxiang" unicode="&#59473;" d="M959.68-25.024c-15.232 181.696-139.648 331.968-307.84 386.624 70.464 45.632 117.248 124.48 117.248 214.464C769.152 717.376 654.208 832 512.512 832 370.752 832 255.808 717.376 255.808 576.064c0-89.984 46.784-168.832 117.248-214.528-168.192-54.592-292.544-204.864-307.84-386.56-0.192-3.456-0.64-5.44 0-10.176C66.496-51.2 80.64-64 96.704-64c17.92 0 32.064 14.656 32.064 32 16.704 197.76 182.272 351.936 383.744 351.936 201.408 0 366.976-154.176 383.68-351.936 0-17.344 14.144-32 32.064-32 16.064 0 30.208 12.8 31.424 28.8C960.32-30.464 959.936-28.416 959.68-25.024zM320 576.064C320 682.048 406.208 768 512.512 768s192.448-85.952 192.448-191.936c0-106.048-86.144-192-192.448-192S320 470.016 320 576.064z"  horiz-adv-x="1024" />

    
    <glyph glyph-name="fenlei1" unicode="&#59012;" d="M801.04665-49.698656M87.567893 535.058414M123.246487 791.324986c-30.840402 0-55.802934-24.974811-55.802934-55.80498 0-30.810726 24.962531-55.792701 55.802934-55.792701 30.807656 0 55.789631 24.981974 55.789631 55.792701C179.035094 766.349151 154.054143 791.324986 123.246487 791.324986L123.246487 791.324986zM301.797046 702.046636l624.982214 0c18.486026 0 33.472346 14.973016 33.472346 33.473369 0 18.511609-14.986319 33.485649-33.472346 33.485649L301.797046 769.005654c-18.517749 0-33.472346-14.97404-33.472346-33.485649C268.323677 717.019653 283.279297 702.046636 301.797046 702.046636L301.797046 702.046636zM123.246487 456.517617c-30.840402 0-55.802934-24.968671-55.802934-55.813167 0-30.830169 24.962531-55.79884 55.802934-55.79884 30.807656 0 55.789631 24.968671 55.789631 55.79884C179.035094 431.548946 154.054143 456.517617 123.246487 456.517617L123.246487 456.517617zM926.77926 434.186006 301.797046 434.186006c-18.517749 0-33.472346-14.97404-33.472346-33.480532 0-18.49319 14.954597-33.479509 33.472346-33.479509l624.982214 0c18.486026 0 33.472346 14.986319 33.472346 33.479509C960.251605 419.211966 945.265286 434.186006 926.77926 434.186006L926.77926 434.186006zM123.246487 99.39194c-30.840402 0-55.802934-24.981974-55.802934-55.81419 0-30.842449 24.962531-55.785537 55.802934-55.785537 30.807656 0 55.789631 24.943089 55.789631 55.785537C179.035094 74.409966 154.054143 99.39194 123.246487 99.39194L123.246487 99.39194zM926.77926 77.057259 301.797046 77.057259c-18.517749 0-33.472346-15.011902-33.472346-33.479509 0-18.466584 14.954597-33.466206 33.472346-33.466206l624.982214 0c18.486026 0 33.472346 14.999622 33.472346 33.466206C960.251605 62.045357 945.265286 77.057259 926.77926 77.057259L926.77926 77.057259zM926.523433 83.879642"  horiz-adv-x="1024" />

    
    <glyph glyph-name="shangyiye-copy-copy" unicode="&#58924;" d="M718.005-5.39c12.839 13.006 12.773 33.924-0.202 46.798l-342.207 339.102 340.753 343.833c12.874 13.006 12.78 33.925-0.195 46.835-13.011 12.879-33.961 12.777-46.84-0.197l-362.137-365.443c-0.56-0.566-0.692-1.293-1.222-1.853-0.132-0.137-0.296-0.168-0.429-0.299-6.387-6.454-9.6-14.898-9.601-23.302 0-8.505 3.278-17.046 9.798-23.5l365.445-362.137c13.009-12.91 33.96-12.809 46.838 0.165v0zM718.005-5.39z"  horiz-adv-x="1024" />

    
    <glyph glyph-name="duihao" unicode="&#58944;" d="M416.832 97.92C400.64 97.92 384.512 104.128 372.16 116.48L119.424 370.24C94.784 395.008 94.784 435.2 119.424 459.968 144.128 484.736 184.128 484.736 208.768 459.968L416.832 251.072 814.4 650.24C839.04 675.072 879.04 675.072 903.744 650.24 928.384 625.472 928.384 585.344 903.744 560.576L461.504 116.48C449.152 104.128 432.96 97.92 416.832 97.92Z"  horiz-adv-x="1024" />

    
    <glyph glyph-name="peisong2" unicode="&#59073;" d="M585.536 695.424C585.216 703.04 582.528 709.76 577.92 715.776 569.344 726.72 557.76 730.112 544.32 730.048 387.456 729.92 230.592 729.984 73.792 729.984c-2.688 0-5.312-0.128-7.936-0.32C48.256 728.448 33.984 714.24 32.64 696.64 32.384 693.632 32.256 690.688 32.256 687.616c0-167.808 0.192-335.616-0.256-503.488-0.128-27.136 17.344-44.096 43.136-42.88 20.16 1.024 40.512 0.192 60.736 0.192 2.048 0 4.032 0 6.464 0 10.56 64.192 60.736 107.2 114.368 111.04 79.872 5.824 126.08-35.84 146.24-110.784 0.064 0 0.64-0.192 1.216-0.192 48.256 0 96.512-0.128 144.768 0.192 5.504 0 11.456 1.344 16.32 3.84 14.976 7.424 20.544 20.352 20.544 36.736C585.6 351.232 585.664 520.192 585.664 689.152 585.664 691.2 585.664 693.312 585.536 695.424zM991.424 370.24c-3.84 25.664-14.912 48.256-29.952 68.992-13.44 18.496-27.328 36.736-41.28 54.848-17.792 23.296-35.712 46.528-54.08 69.376-11.136 13.888-26.176 19.584-44.032 19.52-52.736-0.192-105.536-0.064-158.4-0.128-4.48-0.064-9.152-0.384-13.44-1.536-17.472-4.672-27.264-18.56-27.264-38.336 0-120.512 0-241.088 0-361.6 0-2.432 0-4.864 0.256-7.296 1.856-18.24 18.688-33.344 36.16-31.936 5.184 31.744 19.776 58.752 44.224 79.936 24.768 21.376 53.824 31.808 86.464 31.808 53.952 0.128 116.608-38.656 128.896-112.448 7.616 0 15.36-0.064 23.04 0.064 6.976 0.128 14.208-0.448 20.928 1.024 17.92 3.84 28.864 18.368 28.864 37.632 0.064 60.352 0 120.768 0 181.056C992 364.16 991.872 367.296 991.424 370.24zM733.76 362.176c0 49.024 0 97.664 0 147.392 2.176 0 4.352 0 6.592 0 25.856 0 51.84-0.32 77.76 0.128 9.216 0.192 16-3.392 20.928-10.176 27.2-37.248 54.272-74.624 80.896-112.32 4.416-6.336 6.72-14.208 9.92-21.44 0.448-0.896 0.064-2.176 0.064-3.584C864.512 362.176 799.424 362.176 733.76 362.176zM272.256 207.616c-47.168 0.128-85.248-37.568-85.312-84.736-0.064-46.976 37.952-84.928 85.12-84.928 47.104 0 85.312 38.144 85.184 85.056C357.184 169.664 319.296 207.424 272.256 207.616zM789.568 207.616c-46.976 0.448-85.568-37.504-85.824-84.416-0.256-46.848 37.76-84.928 84.992-85.248 46.784-0.256 84.864 37.248 85.312 84.16C874.624 169.088 836.992 207.168 789.568 207.616z"  horiz-adv-x="1024" />

    
    <glyph glyph-name="xianshigengduo" unicode="&#58948;" d="M887.786177 553.738869 536.401248 168.172443c-6.711865-6.739495-15.617699-9.625218-24.429389-9.18622-8.779967-0.440022-17.688871 2.446725-24.400736 9.18622L136.214846 553.738869c-12.607132 12.670577-12.607132 33.17968 0 45.816488 12.574387 12.667507 32.988322 12.667507 45.566802 0l330.189188-362.330212 330.21784 362.330212c12.605086 12.667507 33.022091 12.667507 45.597501 0C900.392286 586.918549 900.392286 566.409446 887.786177 553.738869z"  horiz-adv-x="1024" />

    
    <glyph glyph-name="jisuanqi" unicode="&#59258;" d="M861.202691 879.517237 162.797309 879.517237c-51.98115 0-94.287986-40.124136-94.287986-89.435188l0-826.372333c0-49.320133 42.306836-89.435188 94.287986-89.435188l698.377126 0c52.008396 0 94.315232 40.115054 94.315232 89.435188L955.489667 790.082049C955.489667 839.393101 913.182832 879.517237 861.202691 879.517237L861.202691 879.517237zM896.352935-36.290284c0-16.702749-15.780424-30.309556-35.1785-30.309556L162.797309-66.59984c-19.398075 0-35.151254 13.606807-35.151254 30.309556L127.646056 790.082049c0 16.702749 15.753179 30.298455 35.151254 30.298455l698.404372 0c19.398075 0 35.151254-13.595707 35.151254-30.298455L896.352935-36.290284 896.352935-36.290284zM896.352935-36.290284M748.821406 761.255882 275.087775 761.255882c-32.402445 0-58.748226-24.840192-58.748226-55.346524l0-62.744292c0-32.698113 27.854397-59.307271 62.058099-59.307271l470.125062 0c32.619403 0 59.136732 27.140958 59.136732 60.55251l0 61.552536C807.660451 736.452017 781.25816 761.255882 748.821406 761.255882L748.821406 761.255882zM748.523719 642.993518 278.398657 642.993518c-1.415778 0-2.337093 0.44098-2.716518 0.44098-0.125129 0-0.18063-0.037337-0.205858-0.152375l0 58.836018 473.047438-0.261359L748.523719 642.993518 748.523719 642.993518zM748.523719 642.993518M450.652313 233.409865l-20.903664 20.906691c-5.765032 5.765032-15.14065 5.765032-20.906691 0l-73.175437-73.175437-73.175437 73.175437c-5.765032 5.765032-15.138632 5.765032-20.903664 0l-20.897609-20.906691c-5.765032-5.765032-5.765032-15.138632 0-20.906691l73.173419-73.173419-73.173419-73.175437c-5.765032-5.765032-5.765032-15.131568 0-20.897609l20.897609-20.906691c5.765032-5.765032 15.138632-5.765032 20.903664 0l73.175437 73.175437 73.175437-73.175437c5.765032-5.765032 15.14065-5.765032 20.906691 0l20.903664 20.906691c5.768059 5.765032 5.768059 15.131568 0 20.897609l-73.173419 73.175437 73.173419 73.173419C456.420372 218.271233 456.420372 227.643824 450.652313 233.409865L450.652313 233.409865zM450.652313 233.409865M792.88207 436.02656 585.915113 436.02656c-8.155608 0-14.778381-6.622773-14.778381-14.778381l0-29.567861c0-8.165699 6.622773-14.789481 14.778381-14.789481l206.966958 0c8.155608 0 14.778381 6.624791 14.778381 14.789481l0 29.567861C807.660451 429.404796 801.037678 436.02656 792.88207 436.02656L792.88207 436.02656zM792.88207 436.02656M231.11793 376.889828l73.915113 0 0-73.915113c0-8.155608 6.624791-14.778381 14.789481-14.778381l29.567861 0c8.155608 0 14.778381 6.622773 14.778381 14.778381l0 73.915113 73.915113 0c8.155608 0 14.778381 6.624791 14.778381 14.789481l0 29.567861c0 8.155608-6.622773 14.778381-14.778381 14.778381l-73.915113 0 0 73.915113c0 8.155608-6.622773 14.778381-14.778381 14.778381l-29.567861 0c-8.165699 0-14.789481-6.622773-14.789481-14.778381l0-73.915113-73.915113 0c-8.155608 0-14.778381-6.622773-14.778381-14.778381l0-29.567861C216.339549 383.514619 222.962322 376.889828 231.11793 376.889828L231.11793 376.889828zM231.11793 376.889828M659.830226 229.060611c0-7.730773 3.185753-15.427237 8.66218-20.903664 5.467345-5.469363 13.163809-8.653098 20.906691-8.653098 7.739855 0 15.427237 3.182725 20.906691 8.653098 5.467345 5.476427 8.66218 13.17289 8.66218 20.903664 0 7.742883-3.194835 15.439346-8.66218 20.906691-5.478445 5.476427-13.165827 8.66218-20.906691 8.66218-7.742883 0-15.439346-3.184744-20.906691-8.66218C663.014969 244.498949 659.830226 236.802485 659.830226 229.060611L659.830226 229.060611zM659.830226 229.060611M659.830226 51.673625c0-7.742883 3.185753-15.439346 8.66218-20.906691 5.467345-5.476427 13.163809-8.66218 20.906691-8.66218 7.739855 0 15.427237 3.185753 20.906691 8.66218 5.467345 5.467345 8.66218 13.163809 8.66218 20.906691 0 7.730773-3.194835 15.427237-8.66218 20.904673-5.478445 5.469363-13.165827 8.653098-20.906691 8.653098-7.742883 0-15.439346-3.182725-20.906691-8.653098C663.014969 67.100861 659.830226 59.404398 659.830226 51.673625L659.830226 51.673625zM659.830226 51.673625M792.88207 169.93498 585.915113 169.93498c-8.155608 0-14.778381-6.622773-14.778381-14.789481l0-29.556761c0-8.167717 6.622773-14.789481 14.778381-14.789481l206.966958 0c8.155608 0 14.778381 6.622773 14.778381 14.789481l0 29.556761C807.660451 163.313216 801.037678 169.93498 792.88207 169.93498L792.88207 169.93498zM792.88207 169.93498"  horiz-adv-x="1024" />

    
    <glyph glyph-name="shouji1" unicode="&#58992;" d="M512.387 116.07c-24.834 0-45.039-20.201-45.039-45.041 0-24.834 20.205-45.036 45.039-45.036 24.838 0 45.043 20.202 45.043 45.036C557.43 95.869 537.225 116.07 512.387 116.07L512.387 116.07zM512.387 116.07M735.214 825 289.563 825c-37.495 0-67.994-30.501-67.994-67.995l0-747.902c0-37.494 30.5-67.994 67.994-67.994l445.651 0c37.494 0 67.994 30.5 67.994 67.994L803.208 757.005C803.208 794.499 772.708 825 735.214 825L735.214 825zM289.563 779.672l445.651 0c12.5 0 22.667-10.167 22.667-22.667l0-560.323L266.897 196.682 266.897 757.005C266.897 769.505 277.063 779.672 289.563 779.672L289.563 779.672zM735.214-13.561 289.563-13.561c-12.5 0-22.666 10.169-22.666 22.664L266.897 147.475l490.983 0 0-138.371C757.881-3.396 747.714-13.561 735.214-13.561L735.214-13.561zM735.214-13.561"  horiz-adv-x="1024" />

    
    <glyph glyph-name="xinyongqia1" unicode="&#59065;" d="M893.456828 186.944995M491.889987 558.060291M568.154951 557.006286M974.902792 623.579517c0 33.483602-28.740578 57.234539-61.887512 57.234539L138.397047 680.814056c-33.146934 0-57.863872-23.750937-57.863872-57.234539l0-440.505689c0-33.483602 24.715915-63.031569 57.863872-63.031569L913.01528 120.042259c33.146934 0 61.887512 29.547966 61.887512 63.031569L974.902792 623.579517 974.902792 623.579517zM148.278091 639.882831l767.420297 0 2.399653 0c11.443633 0 14.85022-9.41544 14.85022-20.859074l0-41.562605-810.458509 0 0 41.562605C122.488729 630.467391 136.834458 639.882831 148.278091 639.882831zM918.097018 160.975531 148.278091 160.975531c-11.44261 0-25.78834 9.6815-25.78834 21.123087L122.489752 535.505599l810.458509 0 0-353.406982C932.947238 170.657031 929.540651 160.975531 918.097018 160.975531zM814.065663 357.219053c-17.280572 0-33.830503-6.186909-46.813189-17.0974-12.983709 10.910491-29.532617 17.0974-46.813189 17.0974-40.149419 0-72.820516-32.67212-72.820516-72.820516s32.67212-72.820516 72.820516-72.820516c17.280572 0 33.82948 6.186909 46.813189 17.0974 12.983709-10.910491 29.532617-17.0974 46.813189-17.0974 40.149419 0 72.820516 32.67212 72.820516 72.820516C886.886179 324.547956 854.215082 357.219053 814.065663 357.219053zM814.065663 242.786815c-13.511735 0-26.231431 6.634094-34.043351 17.748223-2.925632 4.154623-7.690146 6.634094-12.769838 6.634094s-9.844206-2.478448-12.769838-6.634094c-7.81192-11.114129-20.531616-17.748223-34.043351-17.748223-22.949688 0-41.611723 18.662035-41.611723 41.611723s18.662035 41.611723 41.611723 41.611723c13.511735 0 26.230408-6.634094 34.043351-17.748223 5.851265-8.31027 19.688411-8.31027 25.539676 0 7.81192 11.114129 20.531616 17.748223 34.043351 17.748223 22.949688 0 41.611723-18.662035 41.611723-41.611723S837.015352 242.786815 814.065663 242.786815z"  horiz-adv-x="1024" />

    
    <glyph glyph-name="09" unicode="&#58914;" d="M768.601 191.975c-35.541 0-67.82-14.804-90.999-38.388L369.062 325.386c9.1 17.558 14.594 37.183 14.594 58.356 0 12.566-2.404 24.444-5.666 35.978l304.075 189.356c22.664-20.485 52.368-33.223 84.99-33.223 70.396 0 127.742 57.495 127.742 128.074S837.451 832 767.056 832s-127.742-57.495-127.742-128.074c0-14.632 2.919-28.403 7.383-41.486L345.368 474.977c-23.007 22.723-54.6 37.011-89.626 37.011C185.347 511.988 128 454.492 128 383.914S185.347 255.84 255.742 255.84c25.583 0 49.449 7.746 69.366 20.829l320.558-178.511c-3.091-11.017-5.151-22.206-5.151-34.084 0-70.578 57.347-128.074 127.742-128.074S896-6.505 896 64.074 838.997 191.975 768.601 191.975z"  horiz-adv-x="1024" />

    
    <glyph glyph-name="iconfontxiaofeifenqi" unicode="&#58900;" d="M520.451 20.805h-419.43c-57.815 0-99.74 41.891-99.74 99.735v559.24c0 57.815 41.925 99.74 99.74 99.74h803.905c57.81 0 104.86-41.889 104.86-99.74v-174.76c0-19.295-9.225-34.954-28.556-34.954s-31.11 15.66-31.11 29.834l0 179.88c0 24.416-15.66 40.076-34.956 40.076h-814.144c-19.26 0-45.196-20.815-45.196-40.076v-564.36c0-19.288 15.695-34.949 34.956-34.949h429.67c19.325 0 34.95-10.505 34.95-29.836-0.001-19.325-15.626-29.83-34.95-29.83v0zM974.83 545.092h-908.765c-19.295-5.12-34.949 10.54-34.949 29.836 0 19.295 15.654 29.829 34.949 29.829h908.765c19.331 0 34.956-10.534 34.956-29.829 0-19.297-15.625-29.836-34.956-29.836v0zM800.349 3.547c-115.56 0-209.574 94.013-209.574 209.573 0 115.561 94.015 209.574 209.574 209.574 115.556 0 209.571-94.013 209.571-209.574h-41.915c0 92.451-75.21 167.66-167.654 167.66-92.451 0-167.66-75.21-167.66-167.66 0-92.444 75.21-167.66 167.66-167.66 44.155 0 85.836 17.027 117.361 47.924l29.34-29.93c-39.411-38.629-91.506-59.908-146.702-59.908v0zM875.795 192.165h-105.836v124.695h41.915v-82.78h63.921l-0-41.915zM856.934 147.105h150.89v-150.89l-150.89 150.89zM856.934 147.105z"  horiz-adv-x="1024" />

    
    <glyph glyph-name="fenlei" unicode="&#59003;" d="M931.571183-127.943658 641.471385-127.943658c-51.60138 0-93.398472 65.628416-93.398472 117.229796L548.072913 254.493607c0 51.572603 41.797092 93.403477 93.398472 93.403477l290.098547 0c51.537569 0 93.398472-41.832125 93.398472-93.403477l0-289.038793C1024.969655-86.146566 983.108752-127.943658 931.571183-127.943658L931.571183-127.943658zM976.990457 251.130421c0 26.32869-21.362736 47.662649-47.662649 47.662649L643.393205 298.793069c-26.294908 0-47.662649-21.333959-47.662649-47.662649l0-285.934603c0-26.294908 21.367741-47.657644 47.662649-47.657644l285.934603 0c26.299913 0 47.662649 21.362736 47.662649 47.657644L976.990457 251.130421 976.990457 251.130421zM931.571183 420.095474 641.471385 420.095474c-51.60138 0-93.398472 65.657194-93.398472 117.258574L548.072913 802.56652c0 51.567598 41.797092 93.433505 93.398472 93.433505l290.098547 0c51.537569 0 93.398472-41.865907 93.398472-93.433505l0-289.043798C1024.969655 461.926348 983.108752 420.095474 931.571183 420.095474L931.571183 420.095474zM976.990457 799.204586c0 26.298662-21.362736 47.661398-47.662649 47.661398L643.393205 846.865982c-26.294908 0-47.662649-21.362736-47.662649-47.661398l0-285.935854c0-26.32869 21.367741-47.661398 47.662649-47.661398l285.934603 0c26.299913 0 47.662649 21.332708 47.662649 47.661398L976.990457 799.204586 976.990457 799.204586zM383.49827-127.943658 93.433505-127.943658C41.797092-127.943658 0-62.315242 0-10.713862L0 254.493607c0 51.572603 41.797092 93.403477 93.433505 93.403477l290.064764 0c51.572603 0 93.433505-41.832125 93.433505-93.403477l0-289.038793C476.901746-86.146566 435.070872-127.943658 383.49827-127.943658L383.49827-127.943658zM428.917544 251.130421c0 26.32869-21.328954 47.662649-47.657644 47.662649L95.325297 298.793069c-26.299913 0-47.662649-21.333959-47.662649-47.662649l0-285.934603c0-26.294908 21.362736-47.657644 47.662649-47.657644l285.934603 0c26.32869 0 47.657644 21.362736 47.657644 47.657644L428.917544 251.130421 428.917544 251.130421zM383.49827 420.095474 93.433505 420.095474C41.797092 420.095474 0 485.752668 0 537.354047L0 802.56652c0 51.567598 41.797092 93.433505 93.433505 93.433505l290.064764 0c51.572603 0 93.433505-41.832125 93.433505-93.433505l0-289.043798C476.901746 461.926348 435.070872 420.095474 383.49827 420.095474L383.49827 420.095474zM428.917544 799.204586c0 26.298662-21.328954 47.661398-47.657644 47.661398L95.325297 846.865982c-26.299913 0-47.662649-21.362736-47.662649-47.661398l0-285.935854c0-26.32869 21.362736-47.661398 47.662649-47.661398l285.934603 0c26.32869 0 47.657644 21.332708 47.657644 47.661398L428.917544 799.204586 428.917544 799.204586zM428.917544 799.204586"  horiz-adv-x="1026" />

    
    <glyph glyph-name="shouye" unicode="&#58999;" d="M224.058247-128.000029c-36.9965 0-80.302481 22.22658-80.302481 85.034591L143.755766 310.078684 70.479752 310.078684c-13.335948 0-28.392663 8.890632-40.294638 23.660552C17.709551 349.226143 10.826481 369.301764 10.826481 390.09437l0 9.320824L482.603556 887.682957C488.052653 893.132054 495.939504 896 505.833917 896c11.184988 0 19.645428-2.867946 25.237923-8.46044 1.720767-1.720767 426.750327-434.350383 475.21861-483.67905l6.596275-6.739673 0-9.320824c0-21.366196-3.584932-37.856884-11.041591-50.189051-9.751016-16.347291-26.241704-25.38132-46.317324-25.38132l-71.125055 0-1.147178-358.206424-0.573589-2.581151c-0.430192-2.007562-5.018905-19.932223-17.207674-38.287076-17.924661-26.95869-43.019186-41.155021-72.702425-41.155021L618.400787-128.000029l0 22.943566c0.143397 90.053496 0.286795 325.942034 0 336.266639-0.143397 5.3057-5.449097 19.071839-11.471783 19.071839L417.787982 250.282015c-4.158521 0-12.618961-7.886851-12.618961-18.354853l0-359.927191L229.650741-128.000029C228.360166-127.856631 226.496001-128.000029 224.058247-128.000029M72.917506 355.965816l116.868789 0 0-398.931253c0-9.751016 0-39.147459 34.415349-39.147459 1.147178 0 1.864165 0 2.150959 0l1.433973 0.143397 1.003781 0L359.281889-81.969499 359.281889 232.213957c0 34.128554 27.388882 64.241985 58.506093 64.241985l189.141022 0c18.211455 0 34.271952-9.320824 45.170146-26.241704 8.46044-13.19255 11.758578-27.962471 12.045372-37.283295 0.286795-11.328386 0.143397-240.047059 0-314.757046l128.340572 0c29.683238 0 41.872008 32.981376 44.739954 42.158802l1.147178 398.07087 116.868789 0c5.162302 0 6.022686 1.433973 7.026467 3.011343 1.290576 2.294357 3.441535 7.169864 4.158521 17.494469-53.630585 54.490969-401.369007 408.538872-459.731703 467.905348L57.430599 381.63393C60.01175 366.290421 69.475971 358.116775 72.917506 355.965816"  horiz-adv-x="1024" />

    
    <glyph glyph-name="xiaoshoubaobiao" unicode="&#58959;" d="M147.2 256 51.2 256C19.2 256 0 230.4 0 204.8l0-211.2C0-38.4 19.2-64 51.2-64l96 0C172.8-64 192-38.4 192-12.8l0 217.6C192 230.4 172.8 256 147.2 256zM128 19.2C128 6.4 115.2 0 96 0S64 6.4 64 19.2l0 153.6C64 185.6 76.8 192 96 192S128 185.6 128 172.8L128 19.2zM403.2 448 307.2 448C275.2 448 256 422.4 256 396.8l0-403.2C256-38.4 275.2-64 307.2-64l96 0c25.6 0 51.2 25.6 51.2 51.2L454.4 396.8C448 422.4 428.8 448 403.2 448zM384 19.2C384 6.4 371.2 0 352 0S320 6.4 320 19.2L320 364.8C320 377.6 332.8 384 352 384S384 377.6 384 364.8L384 19.2zM908.8 512l-96 0c-32 0-51.2-25.6-51.2-51.2l0-467.2c0-32 19.2-57.6 51.2-57.6l96 0c25.6 0 51.2 25.6 51.2 51.2L960 460.8C953.6 486.4 934.4 512 908.8 512zM889.6 19.2c0-12.8-12.8-19.2-32-19.2-19.2 0-32 6.4-32 19.2L825.6 428.8c0 12.8 12.8 19.2 32 19.2 19.2 0 32-6.4 32-19.2L889.6 19.2zM659.2 320 563.2 320C531.2 320 512 294.4 512 268.8l0-275.2C512-38.4 531.2-64 563.2-64l96 0c25.6 0 44.8 25.6 44.8 51.2L704 268.8C704 294.4 684.8 320 659.2 320zM640 19.2c0-12.8-12.8-19.2-32-19.2S576 6.4 576 19.2l0 217.6C576 249.6 588.8 256 608 256s32-6.4 32-19.2L640 19.2zM64 307.2l288 249.6 204.8-140.8c19.2-25.6 44.8-6.4 44.8 0L896 729.6l0-57.6C896 652.8 908.8 640 928 640S960 652.8 960 672l0 128C960 819.2 947.2 832 928 832l-128 0C780.8 832 768 819.2 768 800S780.8 768 800 768l44.8 0L576 486.4 371.2 627.2c0 0 0 0 0 0C358.4 640 339.2 640 326.4 627.2L19.2 358.4C6.4 345.6 6.4 320 19.2 307.2 32 300.8 51.2 300.8 64 307.2z"  horiz-adv-x="1024" />

    
    <glyph glyph-name="dingdan" unicode="&#59021;" d="M950.738179 74.912442 738.22933-120.822523C733.272509-125.382798 726.729505-127.920691 719.988228-127.920691L149.715835-127.920691C103.121713-127.920691 65.211943-90.169539 65.211943-43.77369L65.211943 811.615072C65.211943 858.01092 103.121713 895.722418 149.715835 895.722418L874.878984 895.722418C921.473105 895.722418 959.343221 858.01092 959.343221 811.615072L959.343221 94.541455C959.343221 87.086396 956.250165 79.948573 950.738179 74.912442ZM905.611277 811.615072C905.611277 828.507919 891.811486 842.228401 874.878984 842.228401L149.715835 842.228401C132.783333 842.228401 118.943887 828.507919 118.943887 811.615072L118.943887-43.77369C118.943887-60.666538 132.783333-74.387019 149.715835-74.387019L709.440112-74.387019 905.611277 106.239554 905.611277 811.615072ZM687.986988-45.756419C673.116524-45.756419 661.101189-33.780738 661.101189-18.989583L661.101189 149.304419C661.101189 164.095574 673.116524 176.071254 687.986988 176.071254L861.872284 176.071254C876.742749 176.071254 888.758084 164.095574 888.758084 149.304419 888.758084 134.513263 876.742749 122.537583 861.872284 122.537583L714.872788 122.537583 714.872788-18.989583C714.872788-33.780738 702.817798-45.756419 687.986988-45.756419ZM717.569299 318.629439C717.529644 318.629439 717.48999 318.629439 717.48999 318.629439L306.946211 319.700112C292.115401 319.779421 280.100066 331.755102 280.179375 346.546257 280.21903 361.258103 292.234365 373.233784 307.02552 373.233784 307.065174 373.233784 307.104829 373.233784 307.104829 373.233784L717.648608 372.123456C732.479418 372.083801 744.494753 360.068466 744.455098 345.277311 744.375789 330.565465 732.360454 318.629439 717.569299 318.629439ZM717.569299 478.199435C717.529644 478.199435 717.48999 478.199435 717.48999 478.199435L306.946211 479.309763C292.115401 479.349417 280.100066 491.364752 280.179375 506.155908 280.21903 520.867754 292.234365 532.80378 307.02552 532.80378 307.065174 532.80378 307.104829 532.80378 307.104829 532.80378L717.648608 531.733106C732.479418 531.653797 744.494753 519.678116 744.455098 504.886961 744.375789 490.135461 732.360454 478.199435 717.569299 478.199435ZM717.569299 637.253921C717.529644 637.253921 717.48999 637.253921 717.48999 637.253921L306.946211 638.364249C292.115401 638.403903 280.100066 650.419239 280.179375 665.170739 280.21903 679.92224 292.234365 691.858266 307.02552 691.858266 307.065174 691.858266 307.104829 691.858266 307.104829 691.858266L717.648608 690.747938C732.479418 690.708283 744.494753 678.732603 744.455098 663.941448 744.375789 649.189947 732.360454 637.253921 717.569299 637.253921Z"  horiz-adv-x="1024" />

    
    <glyph glyph-name="jian2" unicode="&#58981;" d="M511.658216 843.635375c-254.320243 0-460.487789-206.167546-460.487789-460.487789s206.167546-460.487789 460.487789-460.487789 460.487789 206.167546 460.487789 460.487789S765.978459 843.635375 511.658216 843.635375zM837.041958 325.985702 186.274474 325.985702c-23.931039 0-43.51098 19.579941-43.51098 43.51098l0 29.006637c0 23.931039 19.579941 43.51098 43.51098 43.51098l650.767484 0c23.931039 0 43.51098-19.579941 43.51098-43.51098l0-29.006637C880.552937 345.565642 860.972996 325.985702 837.041958 325.985702z"  horiz-adv-x="1024" />

    
    <glyph glyph-name="wodedingdan" unicode="&#58911;" d="M802.637-107.397h-575.263c-58.83 0-105.843 49.982-105.843 111.421l0 695.175c0 61.439 47.013 120.432 105.843 120.432h63.196l-0 57.813h449.859v-57.813h62.208c58.859 0 106.722-49.954 106.722-111.284v-704.324c-0-61.437-47.863-111.42-106.722-111.42v0zM684.513 820.235h-338.136v-87.213h338.136l-0 87.213zM853.524 694.692c0 36.846-15.549 66.907-50.888 66.907l-62.208 0.605v-87.075h-449.858v86.47h-63.196c-35.337 0-49.927-25.472-49.927-62.4v-695.175c0-36.847 14.59-53.278 49.927-53.278h575.263c35.338 0 50.888 16.432 50.888 53.278l-0 690.668h-0.001zM318.818 297.893h449.941v-58.114h-449.941v58.114zM317.939 443.027h450.82v-58.142l-450.82 0v58.142zM571.663 587.806h197.094v-57.18h-197.094v57.18zM684.267 96.045h-366.328v57.263h366.328v-57.263zM684.267 96.045z"  horiz-adv-x="1024" />

    
    <glyph glyph-name="yewushouce" unicode="&#58986;" d="M661.807934 330.69598l-1.069355 14.042831c-3.260254 29.15297 6.485715 61.007469 33.55114 93.41353 24.348548 28.610618 37.880749 49.666166 37.880749 73.966619 0 27.535123-17.318434 45.898353-51.41295 46.439682-19.47454 0-41.141002-6.479575-54.655807-16.736173l-12.988826 34.014698c17.844413 12.95915 48.696072 21.597901 77.391624 21.597901 62.228273 0 90.38045-38.334073 90.38045-79.378885 0-36.70804-20.561291-63.167668-46.539966-93.946672-23.822568-28.077475-32.481785-51.835575-30.851659-79.370699l0.543376-14.042831L661.807934 330.69598zM649.90586 255.102305c0 19.980054 13.532201 34.014698 32.481785 34.014698 18.931165 0 31.921014-14.034645 31.921014-34.014698 0-18.896372-12.44545-33.472346-32.464389-33.472346C662.894685 221.629959 649.90586 236.206956 649.90586 255.102305zM394.163221 545.734568c-1.77032 0-3.576455 0.261966-5.354961 0.813528-0.552585 0.174985-55.462173 17.10354-102.353133 17.10354-46.899146 0-101.809757-16.928554-102.362342-17.10354-9.482979-2.937912-19.535939 2.316765-22.481014 11.751648-2.962471 9.434883 2.305509 19.481703 11.761881 22.437012 2.453888 0.760317 60.607356 18.729573 113.081475 18.729573 52.464909 0 110.618377-17.969257 113.072265-18.729573 9.457396-2.955308 14.724353-13.002129 11.761881-22.437012C408.896784 550.640298 401.806295 545.734568 394.163221 545.734568zM394.163221 384.562818c-1.77032 0-3.576455 0.261966-5.354961 0.813528-0.552585 0.174985-55.462173 17.10354-102.353133 17.10354-46.899146 0-101.809757-16.928554-102.362342-17.10354-9.482979-2.90312-19.535939 2.325975-22.481014 11.751648-2.962471 9.434883 2.305509 19.481703 11.761881 22.437012 2.453888 0.760317 60.607356 18.729573 113.081475 18.729573 52.464909 0 110.618377-17.969257 113.072265-18.729573 9.457396-2.955308 14.724353-13.002129 11.761881-22.437012C408.896784 389.468548 401.806295 384.562818 394.163221 384.562818zM394.163221 223.391069c-1.77032 0-3.576455 0.261966-5.354961 0.813528-0.552585 0.174985-55.462173 17.10354-102.353133 17.10354-46.899146 0-101.809757-16.928554-102.362342-17.10354-9.482979-2.911306-19.535939 2.316765-22.481014 11.751648-2.962471 9.434883 2.305509 19.481703 11.761881 22.437012 2.453888 0.760317 60.607356 18.729573 113.081475 18.729573 52.464909 0 110.618377-17.969257 113.072265-18.729573 9.457396-2.955308 14.724353-13.002129 11.761881-22.437012C408.896784 228.296799 401.806295 223.391069 394.163221 223.391069zM496.454956 36.887374c-18.808368 0-37.652552 3.690042-55.997362 11.070126-51.185776 20.583804-100.066043 30.595832-149.419078 30.595832-109.952204 0-190.56008-33.393551-191.366446-33.726126-8.300037-3.488451-17.485233-2.614547-25.00551 2.360767-7.520277 4.975315-11.700483 13.378705-11.700483 22.384823L62.966077 705.305867c0 10.729365 6.055926 20.435425 15.943111 24.676006 3.611248 1.547239 89.832981 38.028105 212.879412 38.028105 74.419943 0 131.120316-19.437701 167.370939-34.0587 23.112394-9.321296 49.468668-9.636474 72.335469-0.865717 33.927717 13.037944 102.594633 34.924417 181.388187 34.924417 122.152061 0 224.49803-35.868929 228.802056-37.389562 10.736529-3.812839 17.697057-13.94664 17.697057-25.314549l0-635.733069c0-8.700149-4.034896-16.84976-11.134595-21.895683-7.134491-5.036713-16.168238-6.321986-24.362874-3.462868-0.99056 0.340761-100.086509 34.338063-210.494085 34.338063-73.359798 0-139.262764-22.219047-164.197666-31.767518C531.953448 40.183444 514.229784 36.887374 496.454956 36.887374zM291.062052 132.276908c55.602366 0 112.64043-11.603269 169.548534-34.495652 22.832008-9.181103 46.77942-9.478885 69.313645-0.839111 27.739784 10.623965 101.270475 35.334763 183.640484 35.334763 79.065753 0 151.674445-15.581883 192.606693-26.634614L906.171408 685.606199c-33.769105 9.723455-109.109 28.681226-193.187931 28.681226-70.082148 0-131.669832-19.630083-162.109098-31.338752-35.479049-13.605879-76.299757-13.168927-111.963001 1.198292-32.069393 12.941753-82.22163 30.141484-147.254785 30.141484-82.335217 0-145.80169-17.986653-175.47757-27.65792l0-579.491137C151.993716 118.164492 215.897142 132.276908 291.062052 132.276908zM511.174192 149.660834c-9.912767 0-18.419512 8.018627-18.419512 17.907858L492.75468 597.360366c0 9.889231 8.506744 17.907858 18.419512 17.907858s18.419512-8.018627 18.419512-17.907858l0-429.791673C529.593703 157.678438 521.086959 149.660834 511.174192 149.660834z"  horiz-adv-x="1024" />

    
    <glyph glyph-name="dingdanjine" unicode="&#59026;" d="M750.455 714.701l-170.289-313.525h134.81v-69.181h-158.314v-96.231h158.314v-69.623h-158.314v-138.358h-86.474v138.358h-163.193v69.623h163.193v96.231h-163.193v69.181h137.472l-168.071 313.524h98.891l117.516-244.345c6.501-13.602 13.893-30.896 22.173-51.884h1.774c5.911 16.852 13.595 34.882 23.061 54.102l117.959 242.128h92.683z"  horiz-adv-x="1024" />

    
    <glyph glyph-name="xiangxiajixu" unicode="&#59046;" d="M71.161 435.005l433.669-465.623c22.824-18.26 41.084-18.26 68.474 0l429.104 465.623c22.824 22.824 13.695 50.214-4.565 59.345-13.695 4.565-31.955 4.565-45.65-13.695l-397.149-424.539c-4.565-9.13-27.389-9.13-31.955 0l-397.149 424.539c-13.695 18.261-31.955 18.261-45.65 13.695-18.26-9.13-27.389-36.519-9.13-59.345zM135.070 795.635l369.76-397.149c22.824-22.824 41.084-22.824 68.474 0l369.76 397.149c18.261 22.824 9.13 50.214-9.13 54.78-13.695 4.565-27.389 4.565-45.65-9.13l-333.241-356.065c-4.565-9.13-27.389-9.13-31.955-4.565l-333.241 360.63c-18.261 13.695-31.955 13.695-45.65 9.13-18.26-4.565-27.389-31.955-9.13-54.78z"  horiz-adv-x="1086" />

    
    <glyph glyph-name="wuuiconxiangjifangda" unicode="&#58912;" d="M512 896C230.4 896 0 665.6 0 384c0-281.6 230.4-512 512-512 281.6 0 512 230.4 512 512C1024 665.6 793.6 896 512 896zM716.8 332.8l-153.6 0 0-153.6c0-30.72-20.48-51.2-51.2-51.2s-51.2 20.48-51.2 51.2l0 153.6L307.2 332.8c-30.72 0-51.2 20.48-51.2 51.2 0 30.72 20.48 51.2 51.2 51.2l153.6 0L460.8 588.8c0 30.72 20.48 51.2 51.2 51.2s51.2-20.48 51.2-51.2l0-153.6 153.6 0c30.72 0 51.2-20.48 51.2-51.2C768 353.28 747.52 332.8 716.8 332.8z"  horiz-adv-x="1024" />

    
    <glyph glyph-name="iconfontzhizuobiaozhun04" unicode="&#59008;" d="M823.599296 107.800447c-121.132848 28.479635-181.651177 96.219435-192.293561 110.447485-10.685363 14.306844-10.685363 32.091906-10.685363 53.486168 0 7.141654 3.529383 17.810644 7.086395 24.924669l3.599991 7.113001c3.52836 7.140631 17.702174 42.761919 28.505217 64.157205 0 3.583618 7.072069 14.334473 14.202467 21.421892l0 0c10.709923 7.113001 21.379936 17.83725 39.177278 39.178301 28.506241 42.760896 14.239306 81.966826-10.724249 99.804077l0 7.114025c14.294564 39.232536 21.422915 85.551468 17.878183 142.56702-3.583618 60.626799-60.532655 153.264663-206.643384 153.264663-146.041144 0-203.058742-89.107457-206.629057-153.264663-3.555989-57.015551 3.570315-103.33346 17.839297-139.037636l0-7.058766c-24.911366-21.421892-35.661198-60.627822-10.711969-103.388718 14.241352-21.341051 28.52159-32.0653 39.124066-39.178301l0 0c7.18054-7.141654 14.268982-17.838274 14.268982-21.421892 10.750855-21.395286 25.015743-53.431933 28.54615-64.157205l3.557012-7.113001c3.532453-10.697643 7.129374-17.784038 7.129374-24.924669 0-17.809621 0-39.178301-10.685363-53.486168-10.709923-14.227026-71.227228-81.96785-192.402031-110.447485-106.821911-24.952298-174.495196-42.708707-174.495196-153.238057 0-7.16826 7.141654-17.839297 17.796318-17.839297l929.785222 0c7.058766 0 17.796318 7.141654 17.796318 17.839297C998.17431 65.090716 934.058037 82.848149 823.599296 107.800447L823.599296 107.800447 823.599296 107.800447 823.599296 107.800447zM823.599296 107.800447"  horiz-adv-x="1024" />

    
    </font>
</defs>
</svg>
